<?xml version="1.0" encoding="utf-8" standalone="no"?>
<!DOCTYPE svg PUBLIC "-//W3C//DTD SVG 1.1//EN"
  "http://www.w3.org/Graphics/SVG/1.1/DTD/svg11.dtd">
<!-- Created with matplotlib (http://matplotlib.org/) -->
<svg height="432pt" version="1.1" viewBox="0 0 576 432" width="576pt" xmlns="http://www.w3.org/2000/svg" xmlns:xlink="http://www.w3.org/1999/xlink">
 <defs>
  <style type="text/css">
*{stroke-linecap:butt;stroke-linejoin:round;}
  </style>
 </defs>
 <g id="figure_1">
  <g id="patch_1">
   <path d="
M0 432
L576 432
L576 0
L0 0
z
" style="fill:#ffffff;"/>
  </g>
  <g id="axes_1">
   <g id="patch_2">
    <path d="
M72 388.8
L518.4 388.8
L518.4 43.2
L72 43.2
z
" style="fill:#ffffff;"/>
   </g>
   <g id="line2d_1">
    <path clip-path="url(#p7ff5b81e1d)" d="
M72 216
L72.8928 215.34
L73.7856 213.415
L74.6784 210.316
L75.5712 206.138
L76.464 200.98
L77.3568 194.941
L79.1424 180.634
L80.928 164.055
L84.4992 127.54
L87.1776 100.587
L88.9632 84.3446
L90.7488 70.3276
L91.6416 64.3536
L92.5344 59.1613
L93.4272 54.8103
L94.32 51.3519
L95.2128 48.8302
L96.1056 47.2784
L96.9984 46.7208
L97.8912 47.1739
L98.784 48.6418
L99.6768 51.1209
L100.57 54.5981
L101.462 59.0485
L102.355 64.4407
L103.248 70.7326
L105.034 85.8028
L106.819 103.758
L108.605 123.982
L111.8 163.548
L115.747 212.664
L118.426 242.86
L120.211 260.863
L121.997 277.018
L123.782 291.22
L125.568 303.324
L127.354 313.18
L128.246 317.221
L129.139 320.649
L130.032 323.455
L130.925 325.629
L131.818 327.165
L132.71 328.064
L133.603 328.327
L134.496 327.961
L135.389 326.979
L136.282 325.394
L137.174 323.229
L138.067 320.507
L138.96 317.258
L140.746 309.315
L142.531 299.714
L144.317 288.824
L146.995 270.983
L151.459 241.016
L153.245 230.286
L155.03 220.914
L156.816 213.268
L157.709 210.191
L158.602 207.656
L159.494 205.689
L160.387 204.313
L161.28 203.544
L162.173 203.394
L163.066 203.867
L163.958 204.965
L164.851 206.68
L165.744 209.001
L166.637 211.912
L167.53 215.387
L169.315 223.915
L171.101 234.297
L172.886 246.176
L175.565 265.873
L180.922 306.074
L182.707 317.897
L184.493 328.157
L186.278 336.457
L187.171 339.766
L188.064 342.467
L188.957 344.533
L189.85 345.94
L190.742 346.671
L191.635 346.715
L192.528 346.068
L193.421 344.731
L194.314 342.714
L195.206 340.028
L196.099 336.697
L196.992 332.747
L198.778 323.124
L200.563 311.484
L202.349 298.234
L205.027 276.374
L210.024 234.902
L210.024 234.902
L212.17 219.225
L213.955 208.043
L215.741 198.94
L216.634 195.253
L217.526 192.176
L218.419 189.726
L219.312 187.917
L220.205 186.758
L221.098 186.257
L221.99 186.417
L222.883 187.238
L223.798 188.766
L224.669 190.866
L225.562 193.667
L226.454 197.113
L227.347 201.187
L229.133 211.113
L230.918 223.168
L232.704 236.982
L235.382 259.99
L240.739 307.575
L242.525 321.819
L244.31 334.346
L246.096 344.681
L246.989 348.899
L247.882 352.426
L248.774 355.225
L249.667 357.268
L250.56 358.531
L251.453 358.998
L252.346 358.66
L253.238 357.516
L254.131 355.572
L255.024 352.841
L255.917 349.344
L256.81 345.109
L257.702 340.17
L259.488 328.351
L261.274 314.293
L263.059 298.487
L266.63 263.928
L270.202 229.642
L271.987 214.118
L273.773 200.301
L275.558 188.507
L277.344 178.915
L278.237 174.962
L279.13 171.567
L280.022 168.715
L280.915 166.388
L281.808 164.557
L282.701 163.19
L283.594 162.246
L284.486 161.689
L285.379 161.482
L286.272 161.591
L287.165 161.979
L288.058 162.613
L288.95 163.46
L290.736 165.667
L292.522 168.359
L298.771 178.461
L300.557 180.763
L302.342 182.526
L303.235 183.169
L304.128 183.639
L305.021 183.927
L305.914 184.025
L306.806 183.929
L307.699 183.636
L308.592 183.146
L309.485 182.459
L310.378 181.579
L311.27 180.512
L313.056 177.847
L314.842 174.543
L316.627 170.708
L319.306 164.244
L325.555 148.562
L327.341 144.66
L329.126 141.297
L330.912 138.601
L331.805 137.538
L332.698 136.68
L333.59 136.036
L334.483 135.613
L335.376 135.416
L336.269 135.448
L337.162 135.711
L338.054 136.203
L338.947 136.921
L339.84 137.861
L340.733 139.013
L342.518 141.92
L344.304 145.543
L346.09 149.761
L348.768 156.867
L355.018 174.035
L356.803 178.274
L358.589 181.907
L360.374 184.793
L361.267 185.918
L362.16 186.816
L363.053 187.476
L363.946 187.89
L364.838 188.055
L365.731 187.966
L366.624 187.623
L367.517 187.028
L368.41 186.183
L369.302 185.098
L370.195 183.778
L371.981 180.482
L373.766 176.407
L375.552 171.694
L378.23 163.793
L383.587 147.399
L385.373 142.498
L387.158 138.197
L388.944 134.663
L389.837 133.228
L390.73 132.034
L391.622 131.094
L392.515 130.419
L393.408 130.016
L394.301 129.89
L395.194 130.044
L396.086 130.479
L396.979 131.191
L397.872 132.177
L398.765 133.429
L399.658 134.937
L401.443 138.669
L403.229 143.248
L405.014 148.515
L407.693 157.293
L413.05 175.352
L414.835 180.706
L416.621 185.377
L418.406 189.185
L419.299 190.717
L420.192 191.98
L421.085 192.959
L421.978 193.645
L422.87 194.029
L423.763 194.106
L424.656 193.873
L425.549 193.331
L426.442 192.483
L427.334 191.334
L428.227 189.894
L429.12 188.174
L430.906 183.952
L432.691 178.812
L434.477 172.932
L437.155 163.184
L442.512 143.298
L444.298 137.453
L446.083 132.382
L447.869 128.283
L448.762 126.65
L449.654 125.319
L450.547 124.302
L451.44 123.61
L452.333 123.254
L453.226 123.238
L454.118 123.563
L455.011 124.23
L455.904 125.234
L456.797 126.568
L457.69 128.221
L458.582 130.181
L460.368 134.952
L462.154 140.719
L463.939 147.282
L466.618 158.103
L471.082 176.549
L472.867 183.277
L474.653 189.244
L476.438 194.222
L477.331 196.277
L478.224 198.015
L479.117 199.417
L480.01 200.468
L480.902 201.157
L481.795 201.475
L482.688 201.418
L483.581 200.982
L484.474 200.17
L485.366 198.988
L486.259 197.443
L487.152 195.548
L488.045 193.319
L489.83 187.931
L491.616 181.465
L493.402 174.144
L496.08 162.136
L500.544 141.821
L502.33 134.465
L504.115 127.975
L505.901 122.602
L506.794 120.401
L507.686 118.556
L508.579 117.085
L509.472 116.004
L510.365 115.324
L511.258 115.056
L512.15 115.204
L513.043 115.769
L513.936 116.748
L514.829 118.135
L515.722 119.92
L516.614 122.087
L517.507 124.621
L518.4 127.498
L518.4 127.498" style="fill:none;stroke:#0000ff;stroke-linecap:square;"/>
   </g>
   <g id="line2d_2">
    <path clip-path="url(#p7ff5b81e1d)" d="
M72 216
L72.8928 214.813
L73.7856 211.374
L74.6784 205.889
L75.5712 198.586
L76.464 189.724
L78.2496 168.421
L84.4992 86.5369
L85.392 77.5233
L86.2848 69.8535
L87.1776 63.6842
L88.0704 59.1406
L88.9632 56.3135
L89.856 55.2588
L90.7488 55.997
L91.6416 58.5131
L92.5344 62.7568
L93.4272 68.6449
L94.32 76.0627
L95.2128 84.8673
L96.9984 105.94
L98.784 130.274
L103.248 193.346
L105.034 214.675
L105.926 223.697
L106.819 231.413
L107.712 237.696
L108.605 242.445
L109.498 245.59
L110.39 247.093
L111.283 246.944
L112.176 245.166
L113.069 241.81
L113.962 236.958
L114.854 230.717
L115.747 223.219
L117.533 205.091
L119.318 184.013
L123.782 129.21
L125.568 110.718
L126.461 102.921
L127.354 96.2779
L128.246 90.9003
L129.139 86.8754
L130.032 84.264
L130.925 83.1002
L131.818 83.3903
L132.71 85.1137
L133.603 88.223
L134.496 92.6456
L135.389 98.2851
L136.282 105.023
L138.067 121.23
L139.853 139.987
L144.317 188.486
L146.102 204.762
L146.995 211.603
L147.888 217.414
L148.781 222.099
L149.674 225.583
L150.566 227.813
L151.459 228.76
L152.352 228.422
L153.245 226.817
L154.138 223.99
L155.03 220.006
L155.923 214.951
L156.816 208.933
L158.602 194.508
L160.387 177.867
L164.851 135.036
L166.637 120.737
L167.53 114.747
L168.422 109.673
L169.315 105.601
L170.208 102.595
L171.101 100.701
L171.994 99.9413
L172.886 100.319
L173.779 101.814
L174.672 104.387
L175.565 107.979
L176.458 112.511
L177.35 117.889
L179.136 130.733
L181.814 153.251
L184.493 176.234
L186.278 189.921
L188.064 201.138
L188.957 205.567
L189.85 209.106
L190.742 211.698
L191.635 213.306
L192.528 213.909
L193.421 213.506
L194.314 212.117
L195.206 209.778
L196.099 206.542
L196.992 202.479
L197.885 197.675
L199.67 186.241
L202.349 166.276
L205.027 145.98
L206.813 133.935
L208.598 124.102
L209.491 120.237
L210.384 117.162
L211.277 114.928
L212.17 113.567
L213.062 113.095
L213.955 113.511
L214.848 114.798
L215.741 116.923
L216.634 119.837
L217.526 123.478
L218.419 127.769
L220.205 137.947
L222.883 155.646
L225.562 173.569
L227.347 184.167
L229.133 192.785
L230.026 196.158
L230.918 198.828
L231.811 200.752
L232.704 201.902
L233.597 202.266
L234.49 201.845
L235.382 200.654
L236.275 198.725
L237.168 196.102
L238.061 192.84
L238.954 189.008
L240.739 179.95
L243.418 164.26
L246.096 148.435
L247.882 139.111
L248.774 135.077
L249.667 131.559
L250.56 128.617
L251.453 126.299
L252.346 124.644
L253.238 123.674
L254.131 123.4
L255.024 123.819
L255.917 124.918
L256.81 126.667
L257.702 129.028
L258.595 131.95
L260.381 139.224
L262.166 147.911
L267.523 175.576
L269.309 183.052
L270.202 186.13
L271.094 188.696
L271.987 190.706
L272.88 192.129
L273.773 192.945
L274.666 193.146
L275.558 192.733
L276.451 191.721
L277.344 190.135
L278.237 188.012
L279.13 185.396
L280.915 178.91
L282.701 171.194
L288.058 146.755
L289.843 140.194
L290.736 137.503
L291.629 135.269
L292.522 133.529
L293.414 132.311
L294.307 131.63
L295.2 131.494
L296.093 131.901
L296.986 132.834
L297.878 134.274
L298.771 136.186
L299.664 138.529
L301.45 144.312
L303.235 151.161
L308.592 172.714
L310.378 178.459
L311.27 180.805
L312.163 182.745
L313.056 184.247
L313.949 185.287
L314.842 185.852
L315.734 185.934
L316.627 185.541
L317.52 184.681
L318.413 183.377
L319.306 181.659
L320.198 179.563
L321.984 174.417
L323.77 168.345
L328.234 152.239
L330.019 146.683
L330.912 144.309
L331.805 142.262
L332.698 140.575
L333.59 139.277
L334.483 138.387
L335.376 137.919
L336.269 137.875
L337.162 138.253
L338.054 139.04
L338.947 140.218
L339.84 141.761
L340.733 143.635
L342.518 148.22
L344.304 153.609
L348.768 167.828
L350.554 172.707
L351.446 174.785
L352.339 176.572
L353.232 178.039
L354.125 179.16
L355.018 179.92
L355.91 180.307
L356.803 180.318
L357.696 179.958
L358.589 179.237
L359.482 178.171
L360.374 176.786
L361.267 175.11
L363.053 171.027
L364.838 166.247
L369.302 153.694
L371.088 149.41
L371.981 147.591
L372.874 146.032
L373.766 144.757
L374.659 143.789
L375.552 143.141
L376.445 142.823
L377.338 142.837
L378.23 143.178
L379.123 143.838
L380.016 144.801
L380.909 146.044
L381.802 147.543
L383.587 151.179
L385.373 155.419
L389.837 166.499
L391.622 170.26
L392.515 171.851
L393.408 173.212
L394.301 174.32
L395.194 175.155
L396.086 175.707
L396.979 175.967
L397.872 175.934
L398.765 175.611
L399.658 175.008
L400.55 174.139
L401.443 173.023
L403.229 170.148
L405.014 166.614
L411.264 153.179
L413.05 150.213
L413.942 149.025
L414.835 148.064
L415.728 147.343
L416.621 146.874
L417.514 146.663
L418.406 146.711
L419.299 147.015
L420.192 147.565
L421.085 148.349
L421.978 149.35
L423.763 151.916
L425.549 155.055
L431.798 166.912
L433.584 169.51
L434.477 170.545
L435.37 171.38
L436.262 172.001
L437.155 172.399
L438.048 172.569
L438.941 172.51
L439.834 172.226
L440.726 171.724
L441.619 171.017
L442.512 170.119
L444.298 167.83
L446.083 165.042
L452.333 154.579
L454.118 152.304
L455.011 151.402
L455.904 150.677
L456.797 150.142
L457.69 149.805
L458.582 149.67
L459.475 149.736
L460.368 150.001
L461.261 150.458
L462.154 151.096
L463.046 151.901
L464.832 153.942
L466.618 156.418
L472.867 165.65
L474.653 167.642
L475.546 168.429
L476.438 169.057
L477.331 169.517
L478.224 169.803
L479.117 169.909
L480.01 169.838
L480.902 169.591
L481.795 169.176
L482.688 168.601
L484.474 167.026
L486.259 164.996
L488.938 161.453
L492.509 156.743
L494.294 154.786
L496.08 153.286
L496.973 152.741
L497.866 152.346
L498.758 152.105
L499.651 152.022
L500.544 152.096
L501.437 152.325
L502.33 152.703
L503.222 153.221
L505.008 154.629
L506.794 156.434
L509.472 159.573
L512.15 162.75
L513.936 164.628
L515.722 166.154
L517.507 167.223
L518.4 167.563
L518.4 167.563" style="fill:none;stroke:#0000ff;stroke-dasharray:3.000000,3.000000;stroke-dashoffset:0.0;"/>
   </g>
   <g id="matplotlib.axis_1">
    <g id="xtick_1">
     <g id="line2d_3">
      <defs>
       <path d="
M0 0
L0 -4" id="m93b0483c22" style="stroke:#000000;stroke-width:0.5;"/>
      </defs>
      <g>
       <use style="stroke:#000000;stroke-width:0.5;" x="72.0" xlink:href="#m93b0483c22" y="388.8"/>
      </g>
     </g>
     <g id="line2d_4">
      <defs>
       <path d="
M0 0
L0 4" id="m741efc42ff" style="stroke:#000000;stroke-width:0.5;"/>
      </defs>
      <g>
       <use style="stroke:#000000;stroke-width:0.5;" x="72.0" xlink:href="#m741efc42ff" y="43.2"/>
      </g>
     </g>
     <g id="text_1">
      <!-- 0 -->
      <defs>
       <path d="
M31.7812 66.4062
Q24.1719 66.4062 20.3281 58.9062
Q16.5 51.4219 16.5 36.375
Q16.5 21.3906 20.3281 13.8906
Q24.1719 6.39062 31.7812 6.39062
Q39.4531 6.39062 43.2812 13.8906
Q47.125 21.3906 47.125 36.375
Q47.125 51.4219 43.2812 58.9062
Q39.4531 66.4062 31.7812 66.4062
M31.7812 74.2188
Q44.0469 74.2188 50.5156 64.5156
Q56.9844 54.8281 56.9844 36.375
Q56.9844 17.9688 50.5156 8.26562
Q44.0469 -1.42188 31.7812 -1.42188
Q19.5312 -1.42188 13.0625 8.26562
Q6.59375 17.9688 6.59375 36.375
Q6.59375 54.8281 13.0625 64.5156
Q19.5312 74.2188 31.7812 74.2188" id="BitstreamVeraSans-Roman-30"/>
      </defs>
      <g transform="translate(68.9765625 401.918125)scale(0.12 -0.12)">
       <use xlink:href="#BitstreamVeraSans-Roman-30"/>
      </g>
     </g>
    </g>
    <g id="xtick_2">
     <g id="line2d_5">
      <g>
       <use style="stroke:#000000;stroke-width:0.5;" x="161.28" xlink:href="#m93b0483c22" y="388.8"/>
      </g>
     </g>
     <g id="line2d_6">
      <g>
       <use style="stroke:#000000;stroke-width:0.5;" x="161.28" xlink:href="#m741efc42ff" y="43.2"/>
      </g>
     </g>
     <g id="text_2">
      <!-- 500 -->
      <defs>
       <path d="
M10.7969 72.9062
L49.5156 72.9062
L49.5156 64.5938
L19.8281 64.5938
L19.8281 46.7344
Q21.9688 47.4688 24.1094 47.8281
Q26.2656 48.1875 28.4219 48.1875
Q40.625 48.1875 47.75 41.5
Q54.8906 34.8125 54.8906 23.3906
Q54.8906 11.625 47.5625 5.09375
Q40.2344 -1.42188 26.9062 -1.42188
Q22.3125 -1.42188 17.5469 -0.640625
Q12.7969 0.140625 7.71875 1.70312
L7.71875 11.625
Q12.1094 9.23438 16.7969 8.0625
Q21.4844 6.89062 26.7031 6.89062
Q35.1562 6.89062 40.0781 11.3281
Q45.0156 15.7656 45.0156 23.3906
Q45.0156 31 40.0781 35.4375
Q35.1562 39.8906 26.7031 39.8906
Q22.75 39.8906 18.8125 39.0156
Q14.8906 38.1406 10.7969 36.2812
z
" id="BitstreamVeraSans-Roman-35"/>
      </defs>
      <g transform="translate(150.6890625 401.918125)scale(0.12 -0.12)">
       <use xlink:href="#BitstreamVeraSans-Roman-35"/>
       <use x="63.623046875" xlink:href="#BitstreamVeraSans-Roman-30"/>
       <use x="127.24609375" xlink:href="#BitstreamVeraSans-Roman-30"/>
      </g>
     </g>
    </g>
    <g id="xtick_3">
     <g id="line2d_7">
      <g>
       <use style="stroke:#000000;stroke-width:0.5;" x="250.56" xlink:href="#m93b0483c22" y="388.8"/>
      </g>
     </g>
     <g id="line2d_8">
      <g>
       <use style="stroke:#000000;stroke-width:0.5;" x="250.56" xlink:href="#m741efc42ff" y="43.2"/>
      </g>
     </g>
     <g id="text_3">
      <!-- 1000 -->
      <defs>
       <path d="
M12.4062 8.29688
L28.5156 8.29688
L28.5156 63.9219
L10.9844 60.4062
L10.9844 69.3906
L28.4219 72.9062
L38.2812 72.9062
L38.2812 8.29688
L54.3906 8.29688
L54.3906 0
L12.4062 0
z
" id="BitstreamVeraSans-Roman-31"/>
      </defs>
      <g transform="translate(236.3475 401.918125)scale(0.12 -0.12)">
       <use xlink:href="#BitstreamVeraSans-Roman-31"/>
       <use x="63.623046875" xlink:href="#BitstreamVeraSans-Roman-30"/>
       <use x="127.24609375" xlink:href="#BitstreamVeraSans-Roman-30"/>
       <use x="190.869140625" xlink:href="#BitstreamVeraSans-Roman-30"/>
      </g>
     </g>
    </g>
    <g id="xtick_4">
     <g id="line2d_9">
      <g>
       <use style="stroke:#000000;stroke-width:0.5;" x="339.84" xlink:href="#m93b0483c22" y="388.8"/>
      </g>
     </g>
     <g id="line2d_10">
      <g>
       <use style="stroke:#000000;stroke-width:0.5;" x="339.84" xlink:href="#m741efc42ff" y="43.2"/>
      </g>
     </g>
     <g id="text_4">
      <!-- 1500 -->
      <g transform="translate(325.6275 401.918125)scale(0.12 -0.12)">
       <use xlink:href="#BitstreamVeraSans-Roman-31"/>
       <use x="63.623046875" xlink:href="#BitstreamVeraSans-Roman-35"/>
       <use x="127.24609375" xlink:href="#BitstreamVeraSans-Roman-30"/>
       <use x="190.869140625" xlink:href="#BitstreamVeraSans-Roman-30"/>
      </g>
     </g>
    </g>
    <g id="xtick_5">
     <g id="line2d_11">
      <g>
       <use style="stroke:#000000;stroke-width:0.5;" x="429.12" xlink:href="#m93b0483c22" y="388.8"/>
      </g>
     </g>
     <g id="line2d_12">
      <g>
       <use style="stroke:#000000;stroke-width:0.5;" x="429.12" xlink:href="#m741efc42ff" y="43.2"/>
      </g>
     </g>
     <g id="text_5">
      <!-- 2000 -->
      <defs>
       <path d="
M19.1875 8.29688
L53.6094 8.29688
L53.6094 0
L7.32812 0
L7.32812 8.29688
Q12.9375 14.1094 22.625 23.8906
Q32.3281 33.6875 34.8125 36.5312
Q39.5469 41.8438 41.4219 45.5312
Q43.3125 49.2188 43.3125 52.7812
Q43.3125 58.5938 39.2344 62.25
Q35.1562 65.9219 28.6094 65.9219
Q23.9688 65.9219 18.8125 64.3125
Q13.6719 62.7031 7.8125 59.4219
L7.8125 69.3906
Q13.7656 71.7812 18.9375 73
Q24.125 74.2188 28.4219 74.2188
Q39.75 74.2188 46.4844 68.5469
Q53.2188 62.8906 53.2188 53.4219
Q53.2188 48.9219 51.5312 44.8906
Q49.8594 40.875 45.4062 35.4062
Q44.1875 33.9844 37.6406 27.2188
Q31.1094 20.4531 19.1875 8.29688" id="BitstreamVeraSans-Roman-32"/>
      </defs>
      <g transform="translate(414.688125 401.918125)scale(0.12 -0.12)">
       <use xlink:href="#BitstreamVeraSans-Roman-32"/>
       <use x="63.623046875" xlink:href="#BitstreamVeraSans-Roman-30"/>
       <use x="127.24609375" xlink:href="#BitstreamVeraSans-Roman-30"/>
       <use x="190.869140625" xlink:href="#BitstreamVeraSans-Roman-30"/>
      </g>
     </g>
    </g>
    <g id="xtick_6">
     <g id="line2d_13">
      <g>
       <use style="stroke:#000000;stroke-width:0.5;" x="518.4" xlink:href="#m93b0483c22" y="388.8"/>
      </g>
     </g>
     <g id="line2d_14">
      <g>
       <use style="stroke:#000000;stroke-width:0.5;" x="518.4" xlink:href="#m741efc42ff" y="43.2"/>
      </g>
     </g>
     <g id="text_6">
      <!-- 2500 -->
      <g transform="translate(503.968125 401.918125)scale(0.12 -0.12)">
       <use xlink:href="#BitstreamVeraSans-Roman-32"/>
       <use x="63.623046875" xlink:href="#BitstreamVeraSans-Roman-35"/>
       <use x="127.24609375" xlink:href="#BitstreamVeraSans-Roman-30"/>
       <use x="190.869140625" xlink:href="#BitstreamVeraSans-Roman-30"/>
      </g>
     </g>
    </g>
    <g id="text_7">
     <!-- Time$\,/\,s$ -->
     <defs>
      <path d="
M52 44.1875
Q55.375 50.25 60.0625 53.125
Q64.75 56 71.0938 56
Q79.6406 56 84.2812 50.0156
Q88.9219 44.0469 88.9219 33.0156
L88.9219 0
L79.8906 0
L79.8906 32.7188
Q79.8906 40.5781 77.0938 44.375
Q74.3125 48.1875 68.6094 48.1875
Q61.625 48.1875 57.5625 43.5469
Q53.5156 38.9219 53.5156 30.9062
L53.5156 0
L44.4844 0
L44.4844 32.7188
Q44.4844 40.625 41.7031 44.4062
Q38.9219 48.1875 33.1094 48.1875
Q26.2188 48.1875 22.1562 43.5312
Q18.1094 38.875 18.1094 30.9062
L18.1094 0
L9.07812 0
L9.07812 54.6875
L18.1094 54.6875
L18.1094 46.1875
Q21.1875 51.2188 25.4844 53.6094
Q29.7812 56 35.6875 56
Q41.6562 56 45.8281 52.9688
Q50 49.9531 52 44.1875" id="BitstreamVeraSans-Roman-6d"/>
      <path d="
M8.6875 6.10938
Q11.375 1.51562 19.4844 1.51562
Q23 1.51562 26.1719 2.70312
Q29.3438 3.90625 31.4219 6.29688
Q33.5 8.6875 33.5 12.1094
Q33.5 14.7031 31.6406 16.3594
Q29.7812 18.0156 27.0938 18.6094
L21.6875 19.6719
Q17.9688 20.6094 15.5781 23.1406
Q13.1875 25.6875 13.1875 29.2969
Q13.1875 33.7344 15.5938 37.1562
Q18.0156 40.5781 21.9688 42.375
Q25.9219 44.1875 30.1719 44.1875
Q34.7188 44.1875 38.2969 42.0156
Q41.8906 39.8438 41.8906 35.5938
Q41.8906 33.2969 40.5938 31.5312
Q39.3125 29.7812 37.0156 29.7812
Q35.6875 29.7812 34.7344 30.6406
Q33.7969 31.5 33.7969 32.8125
Q33.7969 33.9844 34.4531 35.0781
Q35.1094 36.1875 36.2031 36.8438
Q37.3125 37.5 38.4844 37.5
Q37.5938 39.6562 35.1719 40.625
Q32.7656 41.6094 29.9844 41.6094
Q27.4375 41.6094 24.8906 40.5781
Q22.3594 39.5469 20.8125 37.5625
Q19.2812 35.5938 19.2812 32.9062
Q19.2812 31.1094 20.5469 29.7344
Q21.8281 28.375 23.6875 27.7812
L29.5 26.6094
Q32.2812 26.0312 34.5938 24.5312
Q36.9219 23.0469 38.25 20.7656
Q39.5938 18.5 39.5938 15.5781
Q39.5938 11.8594 37.5156 8.25
Q35.4531 4.64062 32.4219 2.48438
Q27.0938 -1.125 19.3906 -1.125
Q14.0625 -1.125 9.60938 1.3125
Q5.17188 3.76562 5.17188 8.59375
Q5.17188 11.3281 6.75 13.3438
Q8.34375 15.375 11.0781 15.375
Q12.7031 15.375 13.7969 14.3906
Q14.8906 13.4219 14.8906 11.8125
Q14.8906 9.51562 13.1719 7.8125
Q11.4688 6.10938 9.1875 6.10938
z
" id="Cmmi10-73"/>
      <path d="
M9.42188 54.6875
L18.4062 54.6875
L18.4062 0
L9.42188 0
z

M9.42188 75.9844
L18.4062 75.9844
L18.4062 64.5938
L9.42188 64.5938
z
" id="BitstreamVeraSans-Roman-69"/>
      <path d="
M56.2031 29.5938
L56.2031 25.2031
L14.8906 25.2031
Q15.4844 15.9219 20.4844 11.0625
Q25.4844 6.20312 34.4219 6.20312
Q39.5938 6.20312 44.4531 7.46875
Q49.3125 8.73438 54.1094 11.2812
L54.1094 2.78125
Q49.2656 0.734375 44.1875 -0.34375
Q39.1094 -1.42188 33.8906 -1.42188
Q20.7969 -1.42188 13.1562 6.1875
Q5.51562 13.8125 5.51562 26.8125
Q5.51562 40.2344 12.7656 48.1094
Q20.0156 56 32.3281 56
Q43.3594 56 49.7812 48.8906
Q56.2031 41.7969 56.2031 29.5938
M47.2188 32.2344
Q47.125 39.5938 43.0938 43.9844
Q39.0625 48.3906 32.4219 48.3906
Q24.9062 48.3906 20.3906 44.1406
Q15.875 39.8906 15.1875 32.1719
z
" id="BitstreamVeraSans-Roman-65"/>
      <path d="
M-0.296875 72.9062
L61.375 72.9062
L61.375 64.5938
L35.5 64.5938
L35.5 0
L25.5938 0
L25.5938 64.5938
L-0.296875 64.5938
z
" id="BitstreamVeraSans-Roman-54"/>
      <path d="
M5.60938 -23
Q5.60938 -22.7031 5.71875 -22.6094
L40.4844 73.7812
Q40.6719 74.3594 41.1562 74.6719
Q41.6562 75 42.2812 75
Q43.1719 75 43.7188 74.4531
Q44.2812 73.9219 44.2812 73
L44.2812 72.6094
L9.51562 -23.7812
Q8.9375 -25 7.625 -25
Q6.78125 -25 6.1875 -24.4062
Q5.60938 -23.8281 5.60938 -23" id="Cmmi10-3d"/>
     </defs>
     <g transform="translate(270.3 418.53375)scale(0.12 -0.12)">
      <use transform="translate(0.0 0.015625)" xlink:href="#BitstreamVeraSans-Roman-54"/>
      <use transform="translate(61.083984375 0.015625)" xlink:href="#BitstreamVeraSans-Roman-69"/>
      <use transform="translate(88.8671875 0.015625)" xlink:href="#BitstreamVeraSans-Roman-6d"/>
      <use transform="translate(186.279296875 0.015625)" xlink:href="#BitstreamVeraSans-Roman-65"/>
      <use transform="translate(282.919921875 0.015625)" xlink:href="#Cmmi10-3d"/>
      <use transform="translate(368.037109375 0.015625)" xlink:href="#Cmmi10-73"/>
     </g>
    </g>
   </g>
   <g id="matplotlib.axis_2">
    <g id="ytick_1">
     <g id="line2d_15">
      <defs>
       <path d="
M0 0
L4 0" id="m728421d6d4" style="stroke:#000000;stroke-width:0.5;"/>
      </defs>
      <g>
       <use style="stroke:#000000;stroke-width:0.5;" x="72.0" xlink:href="#m728421d6d4" y="388.8"/>
      </g>
     </g>
     <g id="line2d_16">
      <defs>
       <path d="
M0 0
L-4 0" id="mcb0005524f" style="stroke:#000000;stroke-width:0.5;"/>
      </defs>
      <g>
       <use style="stroke:#000000;stroke-width:0.5;" x="518.4" xlink:href="#mcb0005524f" y="388.8"/>
      </g>
     </g>
     <g id="text_8">
      <!-- −4 -->
      <defs>
       <path d="
M10.5938 35.5
L73.1875 35.5
L73.1875 27.2031
L10.5938 27.2031
z
" id="BitstreamVeraSans-Roman-2212"/>
       <path d="
M37.7969 64.3125
L12.8906 25.3906
L37.7969 25.3906
z

M35.2031 72.9062
L47.6094 72.9062
L47.6094 25.3906
L58.0156 25.3906
L58.0156 17.1875
L47.6094 17.1875
L47.6094 0
L37.7969 0
L37.7969 17.1875
L4.89062 17.1875
L4.89062 26.7031
z
" id="BitstreamVeraSans-Roman-34"/>
      </defs>
      <g transform="translate(52.25375 392.11125)scale(0.12 -0.12)">
       <use xlink:href="#BitstreamVeraSans-Roman-2212"/>
       <use x="83.7890625" xlink:href="#BitstreamVeraSans-Roman-34"/>
      </g>
     </g>
    </g>
    <g id="ytick_2">
     <g id="line2d_17">
      <g>
       <use style="stroke:#000000;stroke-width:0.5;" x="72.0" xlink:href="#m728421d6d4" y="345.6"/>
      </g>
     </g>
     <g id="line2d_18">
      <g>
       <use style="stroke:#000000;stroke-width:0.5;" x="518.4" xlink:href="#mcb0005524f" y="345.6"/>
      </g>
     </g>
     <g id="text_9">
      <!-- −3 -->
      <defs>
       <path d="
M40.5781 39.3125
Q47.6562 37.7969 51.625 33
Q55.6094 28.2188 55.6094 21.1875
Q55.6094 10.4062 48.1875 4.48438
Q40.7656 -1.42188 27.0938 -1.42188
Q22.5156 -1.42188 17.6562 -0.515625
Q12.7969 0.390625 7.625 2.20312
L7.625 11.7188
Q11.7188 9.32812 16.5938 8.10938
Q21.4844 6.89062 26.8125 6.89062
Q36.0781 6.89062 40.9375 10.5469
Q45.7969 14.2031 45.7969 21.1875
Q45.7969 27.6406 41.2812 31.2656
Q36.7656 34.9062 28.7188 34.9062
L20.2188 34.9062
L20.2188 43.0156
L29.1094 43.0156
Q36.375 43.0156 40.2344 45.9219
Q44.0938 48.8281 44.0938 54.2969
Q44.0938 59.9062 40.1094 62.9062
Q36.1406 65.9219 28.7188 65.9219
Q24.6562 65.9219 20.0156 65.0312
Q15.375 64.1562 9.8125 62.3125
L9.8125 71.0938
Q15.4375 72.6562 20.3438 73.4375
Q25.25 74.2188 29.5938 74.2188
Q40.8281 74.2188 47.3594 69.1094
Q53.9062 64.0156 53.9062 55.3281
Q53.9062 49.2656 50.4375 45.0938
Q46.9688 40.9219 40.5781 39.3125" id="BitstreamVeraSans-Roman-33"/>
      </defs>
      <g transform="translate(52.5425 348.91125)scale(0.12 -0.12)">
       <use xlink:href="#BitstreamVeraSans-Roman-2212"/>
       <use x="83.7890625" xlink:href="#BitstreamVeraSans-Roman-33"/>
      </g>
     </g>
    </g>
    <g id="ytick_3">
     <g id="line2d_19">
      <g>
       <use style="stroke:#000000;stroke-width:0.5;" x="72.0" xlink:href="#m728421d6d4" y="302.4"/>
      </g>
     </g>
     <g id="line2d_20">
      <g>
       <use style="stroke:#000000;stroke-width:0.5;" x="518.4" xlink:href="#mcb0005524f" y="302.4"/>
      </g>
     </g>
     <g id="text_10">
      <!-- −2 -->
      <g transform="translate(52.7825 305.71125)scale(0.12 -0.12)">
       <use xlink:href="#BitstreamVeraSans-Roman-2212"/>
       <use x="83.7890625" xlink:href="#BitstreamVeraSans-Roman-32"/>
      </g>
     </g>
    </g>
    <g id="ytick_4">
     <g id="line2d_21">
      <g>
       <use style="stroke:#000000;stroke-width:0.5;" x="72.0" xlink:href="#m728421d6d4" y="259.2"/>
      </g>
     </g>
     <g id="line2d_22">
      <g>
       <use style="stroke:#000000;stroke-width:0.5;" x="518.4" xlink:href="#mcb0005524f" y="259.2"/>
      </g>
     </g>
     <g id="text_11">
      <!-- −1 -->
      <g transform="translate(52.68875 262.51125)scale(0.12 -0.12)">
       <use xlink:href="#BitstreamVeraSans-Roman-2212"/>
       <use x="83.7890625" xlink:href="#BitstreamVeraSans-Roman-31"/>
      </g>
     </g>
    </g>
    <g id="ytick_5">
     <g id="line2d_23">
      <g>
       <use style="stroke:#000000;stroke-width:0.5;" x="72.0" xlink:href="#m728421d6d4" y="216.0"/>
      </g>
     </g>
     <g id="line2d_24">
      <g>
       <use style="stroke:#000000;stroke-width:0.5;" x="518.4" xlink:href="#mcb0005524f" y="216.0"/>
      </g>
     </g>
     <g id="text_12">
      <!-- 0 -->
      <g transform="translate(61.953125 219.31125)scale(0.12 -0.12)">
       <use xlink:href="#BitstreamVeraSans-Roman-30"/>
      </g>
     </g>
    </g>
    <g id="ytick_6">
     <g id="line2d_25">
      <g>
       <use style="stroke:#000000;stroke-width:0.5;" x="72.0" xlink:href="#m728421d6d4" y="172.8"/>
      </g>
     </g>
     <g id="line2d_26">
      <g>
       <use style="stroke:#000000;stroke-width:0.5;" x="518.4" xlink:href="#mcb0005524f" y="172.8"/>
      </g>
     </g>
     <g id="text_13">
      <!-- 1 -->
      <g transform="translate(62.79125 176.11125)scale(0.12 -0.12)">
       <use xlink:href="#BitstreamVeraSans-Roman-31"/>
      </g>
     </g>
    </g>
    <g id="ytick_7">
     <g id="line2d_27">
      <g>
       <use style="stroke:#000000;stroke-width:0.5;" x="72.0" xlink:href="#m728421d6d4" y="129.6"/>
      </g>
     </g>
     <g id="line2d_28">
      <g>
       <use style="stroke:#000000;stroke-width:0.5;" x="518.4" xlink:href="#mcb0005524f" y="129.6"/>
      </g>
     </g>
     <g id="text_14">
      <!-- 2 -->
      <g transform="translate(62.44625 132.91125)scale(0.12 -0.12)">
       <use xlink:href="#BitstreamVeraSans-Roman-32"/>
      </g>
     </g>
    </g>
    <g id="ytick_8">
     <g id="line2d_29">
      <g>
       <use style="stroke:#000000;stroke-width:0.5;" x="72.0" xlink:href="#m728421d6d4" y="86.4"/>
      </g>
     </g>
     <g id="line2d_30">
      <g>
       <use style="stroke:#000000;stroke-width:0.5;" x="518.4" xlink:href="#mcb0005524f" y="86.4"/>
      </g>
     </g>
     <g id="text_15">
      <!-- 3 -->
      <g transform="translate(62.241875 89.71125)scale(0.12 -0.12)">
       <use xlink:href="#BitstreamVeraSans-Roman-33"/>
      </g>
     </g>
    </g>
    <g id="ytick_9">
     <g id="line2d_31">
      <g>
       <use style="stroke:#000000;stroke-width:0.5;" x="72.0" xlink:href="#m728421d6d4" y="43.2"/>
      </g>
     </g>
     <g id="line2d_32">
      <g>
       <use style="stroke:#000000;stroke-width:0.5;" x="518.4" xlink:href="#mcb0005524f" y="43.2"/>
      </g>
     </g>
     <g id="text_16">
      <!-- 4 -->
      <g transform="translate(61.625 46.51125)scale(0.12 -0.12)">
       <use xlink:href="#BitstreamVeraSans-Roman-34"/>
      </g>
     </g>
    </g>
    <g id="text_17">
     <!-- Current$\,/\,A$ -->
     <defs>
      <path d="
M54.8906 33.0156
L54.8906 0
L45.9062 0
L45.9062 32.7188
Q45.9062 40.4844 42.875 44.3281
Q39.8438 48.1875 33.7969 48.1875
Q26.5156 48.1875 22.3125 43.5469
Q18.1094 38.9219 18.1094 30.9062
L18.1094 0
L9.07812 0
L9.07812 54.6875
L18.1094 54.6875
L18.1094 46.1875
Q21.3438 51.125 25.7031 53.5625
Q30.0781 56 35.7969 56
Q45.2188 56 50.0469 50.1719
Q54.8906 44.3438 54.8906 33.0156" id="BitstreamVeraSans-Roman-6e"/>
      <path d="
M64.4062 67.2812
L64.4062 56.8906
Q59.4219 61.5312 53.7812 63.8125
Q48.1406 66.1094 41.7969 66.1094
Q29.2969 66.1094 22.6562 58.4688
Q16.0156 50.8281 16.0156 36.375
Q16.0156 21.9688 22.6562 14.3281
Q29.2969 6.6875 41.7969 6.6875
Q48.1406 6.6875 53.7812 8.98438
Q59.4219 11.2812 64.4062 15.9219
L64.4062 5.60938
Q59.2344 2.09375 53.4375 0.328125
Q47.6562 -1.42188 41.2188 -1.42188
Q24.6562 -1.42188 15.125 8.70312
Q5.60938 18.8438 5.60938 36.375
Q5.60938 53.9531 15.125 64.0781
Q24.6562 74.2188 41.2188 74.2188
Q47.75 74.2188 53.5312 72.4844
Q59.3281 70.75 64.4062 67.2812" id="BitstreamVeraSans-Roman-43"/>
      <path d="
M4.5 0
Q3.51562 0 3.51562 1.3125
Q3.90625 3.51562 4.78125 3.51562
Q8.84375 3.51562 11.7969 5.125
Q14.75 6.73438 16.8906 10.1094
Q17.0938 10.2969 17.0938 10.2969
L52.7812 70.5156
Q53.5625 71.5781 54.6875 71.5781
L56 71.5781
Q56.2969 71.5781 56.5938 71.4531
Q56.8906 71.3438 57.1094 71.0625
Q57.3281 70.7969 57.3281 70.5156
L63.375 5.90625
Q63.375 5.46875 63.8125 4.59375
Q64.7969 3.51562 71.2969 3.51562
Q72.3125 3.51562 72.3125 2.20312
Q71.9688 0.875 71.75 0.4375
Q71.5312 0 70.6094 0
L45.6094 0
Q44.6719 0 44.6719 1.3125
Q45.2188 3.51562 46 3.51562
Q53.9062 3.51562 54.3906 6.20312
L52.875 22.7031
L28.2188 22.7031
L20.2188 9.28125
Q19.4844 8.20312 19.4844 6.78125
Q19.4844 5.03125 21.1719 4.26562
Q22.8594 3.51562 24.9062 3.51562
Q25.875 3.51562 25.875 2.20312
Q25.5312 0.78125 25.3281 0.390625
Q25.1406 0 24.2188 0
z

M30.1719 26.2188
L52.4844 26.2188
L49.5156 58.5938
z
" id="Cmmi10-41"/>
      <path d="
M18.3125 70.2188
L18.3125 54.6875
L36.8125 54.6875
L36.8125 47.7031
L18.3125 47.7031
L18.3125 18.0156
Q18.3125 11.3281 20.1406 9.42188
Q21.9688 7.51562 27.5938 7.51562
L36.8125 7.51562
L36.8125 0
L27.5938 0
Q17.1875 0 13.2344 3.875
Q9.28125 7.76562 9.28125 18.0156
L9.28125 47.7031
L2.6875 47.7031
L2.6875 54.6875
L9.28125 54.6875
L9.28125 70.2188
z
" id="BitstreamVeraSans-Roman-74"/>
      <path d="
M8.5 21.5781
L8.5 54.6875
L17.4844 54.6875
L17.4844 21.9219
Q17.4844 14.1562 20.5 10.2656
Q23.5312 6.39062 29.5938 6.39062
Q36.8594 6.39062 41.0781 11.0312
Q45.3125 15.6719 45.3125 23.6875
L45.3125 54.6875
L54.2969 54.6875
L54.2969 0
L45.3125 0
L45.3125 8.40625
Q42.0469 3.42188 37.7188 1
Q33.4062 -1.42188 27.6875 -1.42188
Q18.2656 -1.42188 13.375 4.4375
Q8.5 10.2969 8.5 21.5781" id="BitstreamVeraSans-Roman-75"/>
      <path d="
M41.1094 46.2969
Q39.5938 47.1719 37.8125 47.5781
Q36.0312 48 33.8906 48
Q26.2656 48 22.1875 43.0469
Q18.1094 38.0938 18.1094 28.8125
L18.1094 0
L9.07812 0
L9.07812 54.6875
L18.1094 54.6875
L18.1094 46.1875
Q20.9531 51.1719 25.4844 53.5781
Q30.0312 56 36.5312 56
Q37.4531 56 38.5781 55.875
Q39.7031 55.7656 41.0625 55.5156
z
" id="BitstreamVeraSans-Roman-72"/>
     </defs>
     <g transform="translate(44.25375 250.5)rotate(-90.0)scale(0.12 -0.12)">
      <use xlink:href="#BitstreamVeraSans-Roman-43"/>
      <use transform="translate(69.82421875 0.0)" xlink:href="#BitstreamVeraSans-Roman-75"/>
      <use transform="translate(133.203125 0.0)" xlink:href="#BitstreamVeraSans-Roman-72"/>
      <use transform="translate(174.31640625 0.0)" xlink:href="#BitstreamVeraSans-Roman-72"/>
      <use transform="translate(215.4296875 0.0)" xlink:href="#BitstreamVeraSans-Roman-65"/>
      <use transform="translate(276.953125 0.0)" xlink:href="#BitstreamVeraSans-Roman-6e"/>
      <use transform="translate(340.33203125 0.0)" xlink:href="#BitstreamVeraSans-Roman-74"/>
      <use transform="translate(414.658203125 0.0)" xlink:href="#Cmmi10-3d"/>
      <use transform="translate(499.775390625 0.0)" xlink:href="#Cmmi10-41"/>
     </g>
    </g>
   </g>
   <g id="patch_3">
    <path d="
M72 43.2
L518.4 43.2" style="fill:none;stroke:#000000;"/>
   </g>
   <g id="patch_4">
    <path d="
M518.4 388.8
L518.4 43.2" style="fill:none;stroke:#000000;"/>
   </g>
   <g id="patch_5">
    <path d="
M72 388.8
L518.4 388.8" style="fill:none;stroke:#000000;"/>
   </g>
   <g id="patch_6">
    <path d="
M72 388.8
L72 43.2" style="fill:none;stroke:#000000;"/>
   </g>
   <g id="text_18">
    <!-- Chua Circuit -->
    <defs>
     <path id="BitstreamVeraSans-Roman-20"/>
     <path d="
M34.2812 27.4844
Q23.3906 27.4844 19.1875 25
Q14.9844 22.5156 14.9844 16.5
Q14.9844 11.7188 18.1406 8.90625
Q21.2969 6.10938 26.7031 6.10938
Q34.1875 6.10938 38.7031 11.4062
Q43.2188 16.7031 43.2188 25.4844
L43.2188 27.4844
z

M52.2031 31.2031
L52.2031 0
L43.2188 0
L43.2188 8.29688
Q40.1406 3.32812 35.5469 0.953125
Q30.9531 -1.42188 24.3125 -1.42188
Q15.9219 -1.42188 10.9531 3.29688
Q6 8.01562 6 15.9219
Q6 25.1406 12.1719 29.8281
Q18.3594 34.5156 30.6094 34.5156
L43.2188 34.5156
L43.2188 35.4062
Q43.2188 41.6094 39.1406 45
Q35.0625 48.3906 27.6875 48.3906
Q23 48.3906 18.5469 47.2656
Q14.1094 46.1406 10.0156 43.8906
L10.0156 52.2031
Q14.9375 54.1094 19.5781 55.0469
Q24.2188 56 28.6094 56
Q40.4844 56 46.3438 49.8438
Q52.2031 43.7031 52.2031 31.2031" id="BitstreamVeraSans-Roman-61"/>
     <path d="
M54.8906 33.0156
L54.8906 0
L45.9062 0
L45.9062 32.7188
Q45.9062 40.4844 42.875 44.3281
Q39.8438 48.1875 33.7969 48.1875
Q26.5156 48.1875 22.3125 43.5469
Q18.1094 38.9219 18.1094 30.9062
L18.1094 0
L9.07812 0
L9.07812 75.9844
L18.1094 75.9844
L18.1094 46.1875
Q21.3438 51.125 25.7031 53.5625
Q30.0781 56 35.7969 56
Q45.2188 56 50.0469 50.1719
Q54.8906 44.3438 54.8906 33.0156" id="BitstreamVeraSans-Roman-68"/>
     <path d="
M48.7812 52.5938
L48.7812 44.1875
Q44.9688 46.2969 41.1406 47.3438
Q37.3125 48.3906 33.4062 48.3906
Q24.6562 48.3906 19.8125 42.8438
Q14.9844 37.3125 14.9844 27.2969
Q14.9844 17.2812 19.8125 11.7344
Q24.6562 6.20312 33.4062 6.20312
Q37.3125 6.20312 41.1406 7.25
Q44.9688 8.29688 48.7812 10.4062
L48.7812 2.09375
Q45.0156 0.34375 40.9844 -0.53125
Q36.9688 -1.42188 32.4219 -1.42188
Q20.0625 -1.42188 12.7812 6.34375
Q5.51562 14.1094 5.51562 27.2969
Q5.51562 40.6719 12.8594 48.3281
Q20.2188 56 33.0156 56
Q37.1562 56 41.1094 55.1406
Q45.0625 54.2969 48.7812 52.5938" id="BitstreamVeraSans-Roman-63"/>
    </defs>
    <g transform="translate(251.3475 38.2)scale(0.144 -0.144)">
     <use xlink:href="#BitstreamVeraSans-Roman-43"/>
     <use x="69.82421875" xlink:href="#BitstreamVeraSans-Roman-68"/>
     <use x="133.203125" xlink:href="#BitstreamVeraSans-Roman-75"/>
     <use x="196.58203125" xlink:href="#BitstreamVeraSans-Roman-61"/>
     <use x="257.861328125" xlink:href="#BitstreamVeraSans-Roman-20"/>
     <use x="289.6484375" xlink:href="#BitstreamVeraSans-Roman-43"/>
     <use x="359.47265625" xlink:href="#BitstreamVeraSans-Roman-69"/>
     <use x="387.255859375" xlink:href="#BitstreamVeraSans-Roman-72"/>
     <use x="426.119140625" xlink:href="#BitstreamVeraSans-Roman-63"/>
     <use x="481.099609375" xlink:href="#BitstreamVeraSans-Roman-75"/>
     <use x="544.478515625" xlink:href="#BitstreamVeraSans-Roman-69"/>
     <use x="572.26171875" xlink:href="#BitstreamVeraSans-Roman-74"/>
    </g>
   </g>
   <g id="legend_1">
    <g id="patch_7">
     <path d="
M352.611 96.993
L511.2 96.993
L511.2 50.4
L352.611 50.4
L352.611 96.993
z
" style="fill:#ffffff;stroke:#000000;"/>
    </g>
    <g id="line2d_33">
     <path d="
M362.691 62.0617
L382.851 62.0617" style="fill:none;stroke:#0000ff;stroke-linecap:square;"/>
    </g>
    <g id="line2d_34"/>
    <g id="text_19">
     <!-- L.i (L.L = 18 H) -->
     <defs>
      <path d="
M9.8125 72.9062
L19.6719 72.9062
L19.6719 8.29688
L55.1719 8.29688
L55.1719 0
L9.8125 0
z
" id="BitstreamVeraSans-Roman-4c"/>
      <path d="
M8.01562 75.875
L15.8281 75.875
Q23.1406 64.3594 26.7812 53.3125
Q30.4219 42.2812 30.4219 31.3906
Q30.4219 20.4531 26.7812 9.375
Q23.1406 -1.70312 15.8281 -13.1875
L8.01562 -13.1875
Q14.5 -2 17.7031 9.0625
Q20.9062 20.125 20.9062 31.3906
Q20.9062 42.6719 17.7031 53.6562
Q14.5 64.6562 8.01562 75.875" id="BitstreamVeraSans-Roman-29"/>
      <path d="
M31 75.875
Q24.4688 64.6562 21.2812 53.6562
Q18.1094 42.6719 18.1094 31.3906
Q18.1094 20.125 21.3125 9.0625
Q24.5156 -2 31 -13.1875
L23.1875 -13.1875
Q15.875 -1.70312 12.2344 9.375
Q8.59375 20.4531 8.59375 31.3906
Q8.59375 42.2812 12.2031 53.3125
Q15.8281 64.3594 23.1875 75.875
z
" id="BitstreamVeraSans-Roman-28"/>
      <path d="
M31.7812 34.625
Q24.75 34.625 20.7188 30.8594
Q16.7031 27.0938 16.7031 20.5156
Q16.7031 13.9219 20.7188 10.1562
Q24.75 6.39062 31.7812 6.39062
Q38.8125 6.39062 42.8594 10.1719
Q46.9219 13.9688 46.9219 20.5156
Q46.9219 27.0938 42.8906 30.8594
Q38.875 34.625 31.7812 34.625
M21.9219 38.8125
Q15.5781 40.375 12.0312 44.7188
Q8.5 49.0781 8.5 55.3281
Q8.5 64.0625 14.7188 69.1406
Q20.9531 74.2188 31.7812 74.2188
Q42.6719 74.2188 48.875 69.1406
Q55.0781 64.0625 55.0781 55.3281
Q55.0781 49.0781 51.5312 44.7188
Q48 40.375 41.7031 38.8125
Q48.8281 37.1562 52.7969 32.3125
Q56.7812 27.4844 56.7812 20.5156
Q56.7812 9.90625 50.3125 4.23438
Q43.8438 -1.42188 31.7812 -1.42188
Q19.7344 -1.42188 13.25 4.23438
Q6.78125 9.90625 6.78125 20.5156
Q6.78125 27.4844 10.7812 32.3125
Q14.7969 37.1562 21.9219 38.8125
M18.3125 54.3906
Q18.3125 48.7344 21.8438 45.5625
Q25.3906 42.3906 31.7812 42.3906
Q38.1406 42.3906 41.7188 45.5625
Q45.3125 48.7344 45.3125 54.3906
Q45.3125 60.0625 41.7188 63.2344
Q38.1406 66.4062 31.7812 66.4062
Q25.3906 66.4062 21.8438 63.2344
Q18.3125 60.0625 18.3125 54.3906" id="BitstreamVeraSans-Roman-38"/>
      <path d="
M10.6875 12.4062
L21 12.4062
L21 0
L10.6875 0
z
" id="BitstreamVeraSans-Roman-2e"/>
      <path d="
M10.5938 45.4062
L73.1875 45.4062
L73.1875 37.2031
L10.5938 37.2031
z

M10.5938 25.4844
L73.1875 25.4844
L73.1875 17.1875
L10.5938 17.1875
z
" id="BitstreamVeraSans-Roman-3d"/>
      <path d="
M9.8125 72.9062
L19.6719 72.9062
L19.6719 43.0156
L55.5156 43.0156
L55.5156 72.9062
L65.375 72.9062
L65.375 0
L55.5156 0
L55.5156 34.7188
L19.6719 34.7188
L19.6719 0
L9.8125 0
z
" id="BitstreamVeraSans-Roman-48"/>
     </defs>
     <g transform="translate(398.691 67.10175)scale(0.144 -0.144)">
      <use xlink:href="#BitstreamVeraSans-Roman-4c"/>
      <use x="55.712890625" xlink:href="#BitstreamVeraSans-Roman-2e"/>
      <use x="87.5" xlink:href="#BitstreamVeraSans-Roman-69"/>
      <use x="115.283203125" xlink:href="#BitstreamVeraSans-Roman-20"/>
      <use x="147.0703125" xlink:href="#BitstreamVeraSans-Roman-28"/>
      <use x="186.083984375" xlink:href="#BitstreamVeraSans-Roman-4c"/>
      <use x="241.796875" xlink:href="#BitstreamVeraSans-Roman-2e"/>
      <use x="273.583984375" xlink:href="#BitstreamVeraSans-Roman-4c"/>
      <use x="329.296875" xlink:href="#BitstreamVeraSans-Roman-20"/>
      <use x="361.083984375" xlink:href="#BitstreamVeraSans-Roman-3d"/>
      <use x="444.873046875" xlink:href="#BitstreamVeraSans-Roman-20"/>
      <use x="476.66015625" xlink:href="#BitstreamVeraSans-Roman-31"/>
      <use x="540.283203125" xlink:href="#BitstreamVeraSans-Roman-38"/>
      <use x="603.90625" xlink:href="#BitstreamVeraSans-Roman-20"/>
      <use x="635.693359375" xlink:href="#BitstreamVeraSans-Roman-48"/>
      <use x="710.888671875" xlink:href="#BitstreamVeraSans-Roman-29"/>
     </g>
    </g>
    <g id="line2d_35">
     <path d="
M362.691 83.1982
L382.851 83.1982" style="fill:none;stroke:#0000ff;stroke-dasharray:3.000000,3.000000;stroke-dashoffset:0.0;"/>
    </g>
    <g id="line2d_36"/>
    <g id="text_20">
     <!-- L.i (L.L = 10 H) -->
     <g transform="translate(398.691 88.23825)scale(0.144 -0.144)">
      <use xlink:href="#BitstreamVeraSans-Roman-4c"/>
      <use x="55.712890625" xlink:href="#BitstreamVeraSans-Roman-2e"/>
      <use x="87.5" xlink:href="#BitstreamVeraSans-Roman-69"/>
      <use x="115.283203125" xlink:href="#BitstreamVeraSans-Roman-20"/>
      <use x="147.0703125" xlink:href="#BitstreamVeraSans-Roman-28"/>
      <use x="186.083984375" xlink:href="#BitstreamVeraSans-Roman-4c"/>
      <use x="241.796875" xlink:href="#BitstreamVeraSans-Roman-2e"/>
      <use x="273.583984375" xlink:href="#BitstreamVeraSans-Roman-4c"/>
      <use x="329.296875" xlink:href="#BitstreamVeraSans-Roman-20"/>
      <use x="361.083984375" xlink:href="#BitstreamVeraSans-Roman-3d"/>
      <use x="444.873046875" xlink:href="#BitstreamVeraSans-Roman-20"/>
      <use x="476.66015625" xlink:href="#BitstreamVeraSans-Roman-31"/>
      <use x="540.283203125" xlink:href="#BitstreamVeraSans-Roman-30"/>
      <use x="603.90625" xlink:href="#BitstreamVeraSans-Roman-20"/>
      <use x="635.693359375" xlink:href="#BitstreamVeraSans-Roman-48"/>
      <use x="710.888671875" xlink:href="#BitstreamVeraSans-Roman-29"/>
     </g>
    </g>
   </g>
  </g>
 </g>
 <defs>
  <clipPath id="p7ff5b81e1d">
   <rect height="345.6" width="446.4" x="72.0" y="43.2"/>
  </clipPath>
 </defs>
</svg>
