<?xml version="1.0" encoding="utf-8" standalone="no"?>
<!DOCTYPE svg PUBLIC "-//W3C//DTD SVG 1.1//EN"
  "http://www.w3.org/Graphics/SVG/1.1/DTD/svg11.dtd">
<!-- Created with matplotlib (http://matplotlib.org/) -->
<svg height="432pt" version="1.1" viewBox="0 0 576 432" width="576pt" xmlns="http://www.w3.org/2000/svg" xmlns:xlink="http://www.w3.org/1999/xlink">
 <defs>
  <style type="text/css">
*{stroke-linecap:butt;stroke-linejoin:round;}
  </style>
 </defs>
 <g id="figure_1">
  <g id="patch_1">
   <path d="
M0 432
L576 432
L576 0
L0 0
z
" style="fill:#ffffff;"/>
  </g>
  <g id="axes_1">
   <g id="patch_2">
    <path d="
M72 388.8
L518.4 388.8
L518.4 43.2
L72 43.2
z
" style="fill:#ffffff;"/>
   </g>
   <g id="line2d_1">
    <path clip-path="url(#p7ff5b81e1d)" d="
M72 216
L72.8928 215.34
L73.7856 213.415
L74.6784 210.316
L75.5712 206.138
L76.464 200.98
L77.3568 194.941
L79.1424 180.634
L80.928 164.055
L84.4992 127.54
L87.1776 100.587
L88.9632 84.3446
L90.7488 70.3276
L91.6416 64.3536
L92.5344 59.1613
L93.4272 54.8103
L94.32 51.3519
L95.2128 48.8302
L96.1056 47.2784
L96.9984 46.7208
L97.8912 47.1739
L98.784 48.6418
L99.6768 51.1209
L100.57 54.5981
L101.462 59.0485
L102.355 64.4407
L103.248 70.7326
L105.034 85.8028
L106.819 103.758
L108.605 123.982
L111.8 163.548
L115.747 212.664
L118.426 242.86
L120.211 260.863
L121.997 277.018
L123.782 291.22
L125.568 303.324
L127.354 313.18
L128.246 317.221
L129.139 320.649
L130.032 323.455
L130.925 325.629
L131.818 327.165
L132.71 328.064
L133.603 328.327
L134.496 327.961
L135.389 326.979
L136.282 325.394
L137.174 323.229
L138.067 320.507
L138.96 317.258
L140.746 309.315
L142.531 299.714
L144.317 288.824
L146.995 270.983
L151.459 241.016
L153.245 230.286
L155.03 220.914
L156.816 213.268
L157.709 210.191
L158.602 207.656
L159.494 205.689
L160.387 204.313
L161.28 203.544
L162.173 203.394
L163.066 203.867
L163.958 204.965
L164.851 206.68
L165.744 209.001
L166.637 211.912
L167.53 215.387
L169.315 223.915
L171.101 234.297
L172.886 246.176
L175.565 265.873
L180.922 306.074
L182.707 317.897
L184.493 328.157
L186.278 336.457
L187.171 339.766
L188.064 342.467
L188.957 344.533
L189.85 345.94
L190.742 346.671
L191.635 346.715
L192.528 346.068
L193.421 344.731
L194.314 342.714
L195.206 340.028
L196.099 336.697
L196.992 332.747
L198.778 323.124
L200.563 311.484
L202.349 298.234
L205.027 276.374
L210.024 234.902
L210.024 234.902
L212.17 219.225
L213.955 208.043
L215.741 198.94
L216.634 195.253
L217.526 192.176
L218.419 189.726
L219.312 187.917
L220.205 186.758
L221.098 186.257
L221.99 186.417
L222.883 187.238
L223.798 188.766
L224.669 190.866
L225.562 193.667
L226.454 197.113
L227.347 201.187
L229.133 211.113
L230.918 223.168
L232.704 236.982
L235.382 259.99
L240.739 307.575
L242.525 321.819
L244.31 334.346
L246.096 344.681
L246.989 348.899
L247.882 352.426
L248.774 355.225
L249.667 357.268
L250.56 358.531
L251.453 358.998
L252.346 358.66
L253.238 357.516
L254.131 355.572
L255.024 352.841
L255.917 349.344
L256.81 345.109
L257.702 340.17
L259.488 328.351
L261.274 314.293
L263.059 298.487
L266.63 263.928
L270.202 229.642
L271.987 214.118
L273.773 200.301
L275.558 188.507
L277.344 178.915
L278.237 174.962
L279.13 171.567
L280.022 168.715
L280.915 166.388
L281.808 164.557
L282.701 163.19
L283.594 162.246
L284.486 161.689
L285.379 161.482
L286.272 161.591
L287.165 161.979
L288.058 162.613
L288.95 163.46
L290.736 165.667
L292.522 168.359
L298.771 178.461
L300.557 180.763
L302.342 182.526
L303.235 183.169
L304.128 183.639
L305.021 183.927
L305.914 184.025
L306.806 183.929
L307.699 183.636
L308.592 183.146
L309.485 182.459
L310.378 181.579
L311.27 180.512
L313.056 177.847
L314.842 174.543
L316.627 170.708
L319.306 164.244
L325.555 148.562
L327.341 144.66
L329.126 141.297
L330.912 138.601
L331.805 137.538
L332.698 136.68
L333.59 136.036
L334.483 135.613
L335.376 135.416
L336.269 135.448
L337.162 135.711
L338.054 136.203
L338.947 136.921
L339.84 137.861
L340.733 139.013
L342.518 141.92
L344.304 145.543
L346.09 149.761
L348.768 156.867
L355.018 174.035
L356.803 178.274
L358.589 181.907
L360.374 184.793
L361.267 185.918
L362.16 186.816
L363.053 187.476
L363.946 187.89
L364.838 188.055
L365.731 187.966
L366.624 187.623
L367.517 187.028
L368.41 186.183
L369.302 185.098
L370.195 183.778
L371.981 180.482
L373.766 176.407
L375.552 171.694
L378.23 163.793
L383.587 147.399
L385.373 142.498
L387.158 138.197
L388.944 134.663
L389.837 133.228
L390.73 132.034
L391.622 131.094
L392.515 130.419
L393.408 130.016
L394.301 129.89
L395.194 130.044
L396.086 130.479
L396.979 131.191
L397.872 132.177
L398.765 133.429
L399.658 134.937
L401.443 138.669
L403.229 143.248
L405.014 148.515
L407.693 157.293
L413.05 175.352
L414.835 180.706
L416.621 185.377
L418.406 189.185
L419.299 190.717
L420.192 191.98
L421.085 192.959
L421.978 193.645
L422.87 194.029
L423.763 194.106
L424.656 193.873
L425.549 193.331
L426.442 192.483
L427.334 191.334
L428.227 189.894
L429.12 188.174
L430.906 183.952
L432.691 178.812
L434.477 172.932
L437.155 163.184
L442.512 143.298
L444.298 137.453
L446.083 132.382
L447.869 128.283
L448.762 126.65
L449.654 125.319
L450.547 124.302
L451.44 123.61
L452.333 123.254
L453.226 123.238
L454.118 123.563
L455.011 124.23
L455.904 125.234
L456.797 126.568
L457.69 128.221
L458.582 130.181
L460.368 134.952
L462.154 140.719
L463.939 147.282
L466.618 158.103
L471.082 176.549
L472.867 183.277
L474.653 189.244
L476.438 194.222
L477.331 196.277
L478.224 198.015
L479.117 199.417
L480.01 200.468
L480.902 201.157
L481.795 201.475
L482.688 201.418
L483.581 200.982
L484.474 200.17
L485.366 198.988
L486.259 197.443
L487.152 195.548
L488.045 193.319
L489.83 187.931
L491.616 181.465
L493.402 174.144
L496.08 162.136
L500.544 141.821
L502.33 134.465
L504.115 127.975
L505.901 122.602
L506.794 120.401
L507.686 118.556
L508.579 117.085
L509.472 116.004
L510.365 115.324
L511.258 115.056
L512.15 115.204
L513.043 115.769
L513.936 116.748
L514.829 118.135
L515.722 119.92
L516.614 122.087
L517.507 124.621
L518.4 127.498
L518.4 127.498" style="fill:none;stroke:#0000ff;stroke-linecap:square;"/>
   </g>
   <g id="matplotlib.axis_1">
    <g id="xtick_1">
     <g id="line2d_2">
      <defs>
       <path d="
M0 0
L0 -4" id="m93b0483c22" style="stroke:#000000;stroke-width:0.5;"/>
      </defs>
      <g>
       <use style="stroke:#000000;stroke-width:0.5;" x="72.0" xlink:href="#m93b0483c22" y="388.8"/>
      </g>
     </g>
     <g id="line2d_3">
      <defs>
       <path d="
M0 0
L0 4" id="m741efc42ff" style="stroke:#000000;stroke-width:0.5;"/>
      </defs>
      <g>
       <use style="stroke:#000000;stroke-width:0.5;" x="72.0" xlink:href="#m741efc42ff" y="43.2"/>
      </g>
     </g>
     <g id="text_1">
      <!-- 0 -->
      <defs>
       <path d="
M31.7812 66.4062
Q24.1719 66.4062 20.3281 58.9062
Q16.5 51.4219 16.5 36.375
Q16.5 21.3906 20.3281 13.8906
Q24.1719 6.39062 31.7812 6.39062
Q39.4531 6.39062 43.2812 13.8906
Q47.125 21.3906 47.125 36.375
Q47.125 51.4219 43.2812 58.9062
Q39.4531 66.4062 31.7812 66.4062
M31.7812 74.2188
Q44.0469 74.2188 50.5156 64.5156
Q56.9844 54.8281 56.9844 36.375
Q56.9844 17.9688 50.5156 8.26562
Q44.0469 -1.42188 31.7812 -1.42188
Q19.5312 -1.42188 13.0625 8.26562
Q6.59375 17.9688 6.59375 36.375
Q6.59375 54.8281 13.0625 64.5156
Q19.5312 74.2188 31.7812 74.2188" id="BitstreamVeraSans-Roman-30"/>
      </defs>
      <g transform="translate(68.9765625 401.918125)scale(0.12 -0.12)">
       <use xlink:href="#BitstreamVeraSans-Roman-30"/>
      </g>
     </g>
    </g>
    <g id="xtick_2">
     <g id="line2d_4">
      <g>
       <use style="stroke:#000000;stroke-width:0.5;" x="161.28" xlink:href="#m93b0483c22" y="388.8"/>
      </g>
     </g>
     <g id="line2d_5">
      <g>
       <use style="stroke:#000000;stroke-width:0.5;" x="161.28" xlink:href="#m741efc42ff" y="43.2"/>
      </g>
     </g>
     <g id="text_2">
      <!-- 500 -->
      <defs>
       <path d="
M10.7969 72.9062
L49.5156 72.9062
L49.5156 64.5938
L19.8281 64.5938
L19.8281 46.7344
Q21.9688 47.4688 24.1094 47.8281
Q26.2656 48.1875 28.4219 48.1875
Q40.625 48.1875 47.75 41.5
Q54.8906 34.8125 54.8906 23.3906
Q54.8906 11.625 47.5625 5.09375
Q40.2344 -1.42188 26.9062 -1.42188
Q22.3125 -1.42188 17.5469 -0.640625
Q12.7969 0.140625 7.71875 1.70312
L7.71875 11.625
Q12.1094 9.23438 16.7969 8.0625
Q21.4844 6.89062 26.7031 6.89062
Q35.1562 6.89062 40.0781 11.3281
Q45.0156 15.7656 45.0156 23.3906
Q45.0156 31 40.0781 35.4375
Q35.1562 39.8906 26.7031 39.8906
Q22.75 39.8906 18.8125 39.0156
Q14.8906 38.1406 10.7969 36.2812
z
" id="BitstreamVeraSans-Roman-35"/>
      </defs>
      <g transform="translate(150.6890625 401.918125)scale(0.12 -0.12)">
       <use xlink:href="#BitstreamVeraSans-Roman-35"/>
       <use x="63.623046875" xlink:href="#BitstreamVeraSans-Roman-30"/>
       <use x="127.24609375" xlink:href="#BitstreamVeraSans-Roman-30"/>
      </g>
     </g>
    </g>
    <g id="xtick_3">
     <g id="line2d_6">
      <g>
       <use style="stroke:#000000;stroke-width:0.5;" x="250.56" xlink:href="#m93b0483c22" y="388.8"/>
      </g>
     </g>
     <g id="line2d_7">
      <g>
       <use style="stroke:#000000;stroke-width:0.5;" x="250.56" xlink:href="#m741efc42ff" y="43.2"/>
      </g>
     </g>
     <g id="text_3">
      <!-- 1000 -->
      <defs>
       <path d="
M12.4062 8.29688
L28.5156 8.29688
L28.5156 63.9219
L10.9844 60.4062
L10.9844 69.3906
L28.4219 72.9062
L38.2812 72.9062
L38.2812 8.29688
L54.3906 8.29688
L54.3906 0
L12.4062 0
z
" id="BitstreamVeraSans-Roman-31"/>
      </defs>
      <g transform="translate(236.3475 401.918125)scale(0.12 -0.12)">
       <use xlink:href="#BitstreamVeraSans-Roman-31"/>
       <use x="63.623046875" xlink:href="#BitstreamVeraSans-Roman-30"/>
       <use x="127.24609375" xlink:href="#BitstreamVeraSans-Roman-30"/>
       <use x="190.869140625" xlink:href="#BitstreamVeraSans-Roman-30"/>
      </g>
     </g>
    </g>
    <g id="xtick_4">
     <g id="line2d_8">
      <g>
       <use style="stroke:#000000;stroke-width:0.5;" x="339.84" xlink:href="#m93b0483c22" y="388.8"/>
      </g>
     </g>
     <g id="line2d_9">
      <g>
       <use style="stroke:#000000;stroke-width:0.5;" x="339.84" xlink:href="#m741efc42ff" y="43.2"/>
      </g>
     </g>
     <g id="text_4">
      <!-- 1500 -->
      <g transform="translate(325.6275 401.918125)scale(0.12 -0.12)">
       <use xlink:href="#BitstreamVeraSans-Roman-31"/>
       <use x="63.623046875" xlink:href="#BitstreamVeraSans-Roman-35"/>
       <use x="127.24609375" xlink:href="#BitstreamVeraSans-Roman-30"/>
       <use x="190.869140625" xlink:href="#BitstreamVeraSans-Roman-30"/>
      </g>
     </g>
    </g>
    <g id="xtick_5">
     <g id="line2d_10">
      <g>
       <use style="stroke:#000000;stroke-width:0.5;" x="429.12" xlink:href="#m93b0483c22" y="388.8"/>
      </g>
     </g>
     <g id="line2d_11">
      <g>
       <use style="stroke:#000000;stroke-width:0.5;" x="429.12" xlink:href="#m741efc42ff" y="43.2"/>
      </g>
     </g>
     <g id="text_5">
      <!-- 2000 -->
      <defs>
       <path d="
M19.1875 8.29688
L53.6094 8.29688
L53.6094 0
L7.32812 0
L7.32812 8.29688
Q12.9375 14.1094 22.625 23.8906
Q32.3281 33.6875 34.8125 36.5312
Q39.5469 41.8438 41.4219 45.5312
Q43.3125 49.2188 43.3125 52.7812
Q43.3125 58.5938 39.2344 62.25
Q35.1562 65.9219 28.6094 65.9219
Q23.9688 65.9219 18.8125 64.3125
Q13.6719 62.7031 7.8125 59.4219
L7.8125 69.3906
Q13.7656 71.7812 18.9375 73
Q24.125 74.2188 28.4219 74.2188
Q39.75 74.2188 46.4844 68.5469
Q53.2188 62.8906 53.2188 53.4219
Q53.2188 48.9219 51.5312 44.8906
Q49.8594 40.875 45.4062 35.4062
Q44.1875 33.9844 37.6406 27.2188
Q31.1094 20.4531 19.1875 8.29688" id="BitstreamVeraSans-Roman-32"/>
      </defs>
      <g transform="translate(414.688125 401.918125)scale(0.12 -0.12)">
       <use xlink:href="#BitstreamVeraSans-Roman-32"/>
       <use x="63.623046875" xlink:href="#BitstreamVeraSans-Roman-30"/>
       <use x="127.24609375" xlink:href="#BitstreamVeraSans-Roman-30"/>
       <use x="190.869140625" xlink:href="#BitstreamVeraSans-Roman-30"/>
      </g>
     </g>
    </g>
    <g id="xtick_6">
     <g id="line2d_12">
      <g>
       <use style="stroke:#000000;stroke-width:0.5;" x="518.4" xlink:href="#m93b0483c22" y="388.8"/>
      </g>
     </g>
     <g id="line2d_13">
      <g>
       <use style="stroke:#000000;stroke-width:0.5;" x="518.4" xlink:href="#m741efc42ff" y="43.2"/>
      </g>
     </g>
     <g id="text_6">
      <!-- 2500 -->
      <g transform="translate(503.968125 401.918125)scale(0.12 -0.12)">
       <use xlink:href="#BitstreamVeraSans-Roman-32"/>
       <use x="63.623046875" xlink:href="#BitstreamVeraSans-Roman-35"/>
       <use x="127.24609375" xlink:href="#BitstreamVeraSans-Roman-30"/>
       <use x="190.869140625" xlink:href="#BitstreamVeraSans-Roman-30"/>
      </g>
     </g>
    </g>
    <g id="text_7">
     <!-- Time$\,/\,s$ -->
     <defs>
      <path d="
M52 44.1875
Q55.375 50.25 60.0625 53.125
Q64.75 56 71.0938 56
Q79.6406 56 84.2812 50.0156
Q88.9219 44.0469 88.9219 33.0156
L88.9219 0
L79.8906 0
L79.8906 32.7188
Q79.8906 40.5781 77.0938 44.375
Q74.3125 48.1875 68.6094 48.1875
Q61.625 48.1875 57.5625 43.5469
Q53.5156 38.9219 53.5156 30.9062
L53.5156 0
L44.4844 0
L44.4844 32.7188
Q44.4844 40.625 41.7031 44.4062
Q38.9219 48.1875 33.1094 48.1875
Q26.2188 48.1875 22.1562 43.5312
Q18.1094 38.875 18.1094 30.9062
L18.1094 0
L9.07812 0
L9.07812 54.6875
L18.1094 54.6875
L18.1094 46.1875
Q21.1875 51.2188 25.4844 53.6094
Q29.7812 56 35.6875 56
Q41.6562 56 45.8281 52.9688
Q50 49.9531 52 44.1875" id="BitstreamVeraSans-Roman-6d"/>
      <path d="
M8.6875 6.10938
Q11.375 1.51562 19.4844 1.51562
Q23 1.51562 26.1719 2.70312
Q29.3438 3.90625 31.4219 6.29688
Q33.5 8.6875 33.5 12.1094
Q33.5 14.7031 31.6406 16.3594
Q29.7812 18.0156 27.0938 18.6094
L21.6875 19.6719
Q17.9688 20.6094 15.5781 23.1406
Q13.1875 25.6875 13.1875 29.2969
Q13.1875 33.7344 15.5938 37.1562
Q18.0156 40.5781 21.9688 42.375
Q25.9219 44.1875 30.1719 44.1875
Q34.7188 44.1875 38.2969 42.0156
Q41.8906 39.8438 41.8906 35.5938
Q41.8906 33.2969 40.5938 31.5312
Q39.3125 29.7812 37.0156 29.7812
Q35.6875 29.7812 34.7344 30.6406
Q33.7969 31.5 33.7969 32.8125
Q33.7969 33.9844 34.4531 35.0781
Q35.1094 36.1875 36.2031 36.8438
Q37.3125 37.5 38.4844 37.5
Q37.5938 39.6562 35.1719 40.625
Q32.7656 41.6094 29.9844 41.6094
Q27.4375 41.6094 24.8906 40.5781
Q22.3594 39.5469 20.8125 37.5625
Q19.2812 35.5938 19.2812 32.9062
Q19.2812 31.1094 20.5469 29.7344
Q21.8281 28.375 23.6875 27.7812
L29.5 26.6094
Q32.2812 26.0312 34.5938 24.5312
Q36.9219 23.0469 38.25 20.7656
Q39.5938 18.5 39.5938 15.5781
Q39.5938 11.8594 37.5156 8.25
Q35.4531 4.64062 32.4219 2.48438
Q27.0938 -1.125 19.3906 -1.125
Q14.0625 -1.125 9.60938 1.3125
Q5.17188 3.76562 5.17188 8.59375
Q5.17188 11.3281 6.75 13.3438
Q8.34375 15.375 11.0781 15.375
Q12.7031 15.375 13.7969 14.3906
Q14.8906 13.4219 14.8906 11.8125
Q14.8906 9.51562 13.1719 7.8125
Q11.4688 6.10938 9.1875 6.10938
z
" id="Cmmi10-73"/>
      <path d="
M9.42188 54.6875
L18.4062 54.6875
L18.4062 0
L9.42188 0
z

M9.42188 75.9844
L18.4062 75.9844
L18.4062 64.5938
L9.42188 64.5938
z
" id="BitstreamVeraSans-Roman-69"/>
      <path d="
M56.2031 29.5938
L56.2031 25.2031
L14.8906 25.2031
Q15.4844 15.9219 20.4844 11.0625
Q25.4844 6.20312 34.4219 6.20312
Q39.5938 6.20312 44.4531 7.46875
Q49.3125 8.73438 54.1094 11.2812
L54.1094 2.78125
Q49.2656 0.734375 44.1875 -0.34375
Q39.1094 -1.42188 33.8906 -1.42188
Q20.7969 -1.42188 13.1562 6.1875
Q5.51562 13.8125 5.51562 26.8125
Q5.51562 40.2344 12.7656 48.1094
Q20.0156 56 32.3281 56
Q43.3594 56 49.7812 48.8906
Q56.2031 41.7969 56.2031 29.5938
M47.2188 32.2344
Q47.125 39.5938 43.0938 43.9844
Q39.0625 48.3906 32.4219 48.3906
Q24.9062 48.3906 20.3906 44.1406
Q15.875 39.8906 15.1875 32.1719
z
" id="BitstreamVeraSans-Roman-65"/>
      <path d="
M-0.296875 72.9062
L61.375 72.9062
L61.375 64.5938
L35.5 64.5938
L35.5 0
L25.5938 0
L25.5938 64.5938
L-0.296875 64.5938
z
" id="BitstreamVeraSans-Roman-54"/>
      <path d="
M5.60938 -23
Q5.60938 -22.7031 5.71875 -22.6094
L40.4844 73.7812
Q40.6719 74.3594 41.1562 74.6719
Q41.6562 75 42.2812 75
Q43.1719 75 43.7188 74.4531
Q44.2812 73.9219 44.2812 73
L44.2812 72.6094
L9.51562 -23.7812
Q8.9375 -25 7.625 -25
Q6.78125 -25 6.1875 -24.4062
Q5.60938 -23.8281 5.60938 -23" id="Cmmi10-3d"/>
     </defs>
     <g transform="translate(270.3 418.53375)scale(0.12 -0.12)">
      <use transform="translate(0.0 0.015625)" xlink:href="#BitstreamVeraSans-Roman-54"/>
      <use transform="translate(61.083984375 0.015625)" xlink:href="#BitstreamVeraSans-Roman-69"/>
      <use transform="translate(88.8671875 0.015625)" xlink:href="#BitstreamVeraSans-Roman-6d"/>
      <use transform="translate(186.279296875 0.015625)" xlink:href="#BitstreamVeraSans-Roman-65"/>
      <use transform="translate(282.919921875 0.015625)" xlink:href="#Cmmi10-3d"/>
      <use transform="translate(368.037109375 0.015625)" xlink:href="#Cmmi10-73"/>
     </g>
    </g>
   </g>
   <g id="matplotlib.axis_2">
    <g id="ytick_1">
     <g id="line2d_14">
      <defs>
       <path d="
M0 0
L4 0" id="m728421d6d4" style="stroke:#000000;stroke-width:0.5;"/>
      </defs>
      <g>
       <use style="stroke:#000000;stroke-width:0.5;" x="72.0" xlink:href="#m728421d6d4" y="388.8"/>
      </g>
     </g>
     <g id="text_8">
      <!-- −4 -->
      <defs>
       <path d="
M10.5938 35.5
L73.1875 35.5
L73.1875 27.2031
L10.5938 27.2031
z
" id="BitstreamVeraSans-Roman-2212"/>
       <path d="
M37.7969 64.3125
L12.8906 25.3906
L37.7969 25.3906
z

M35.2031 72.9062
L47.6094 72.9062
L47.6094 25.3906
L58.0156 25.3906
L58.0156 17.1875
L47.6094 17.1875
L47.6094 0
L37.7969 0
L37.7969 17.1875
L4.89062 17.1875
L4.89062 26.7031
z
" id="BitstreamVeraSans-Roman-34"/>
      </defs>
      <g transform="translate(52.25375 392.11125)scale(0.12 -0.12)">
       <use xlink:href="#BitstreamVeraSans-Roman-2212"/>
       <use x="83.7890625" xlink:href="#BitstreamVeraSans-Roman-34"/>
      </g>
     </g>
    </g>
    <g id="ytick_2">
     <g id="line2d_15">
      <g>
       <use style="stroke:#000000;stroke-width:0.5;" x="72.0" xlink:href="#m728421d6d4" y="345.6"/>
      </g>
     </g>
     <g id="text_9">
      <!-- −3 -->
      <defs>
       <path d="
M40.5781 39.3125
Q47.6562 37.7969 51.625 33
Q55.6094 28.2188 55.6094 21.1875
Q55.6094 10.4062 48.1875 4.48438
Q40.7656 -1.42188 27.0938 -1.42188
Q22.5156 -1.42188 17.6562 -0.515625
Q12.7969 0.390625 7.625 2.20312
L7.625 11.7188
Q11.7188 9.32812 16.5938 8.10938
Q21.4844 6.89062 26.8125 6.89062
Q36.0781 6.89062 40.9375 10.5469
Q45.7969 14.2031 45.7969 21.1875
Q45.7969 27.6406 41.2812 31.2656
Q36.7656 34.9062 28.7188 34.9062
L20.2188 34.9062
L20.2188 43.0156
L29.1094 43.0156
Q36.375 43.0156 40.2344 45.9219
Q44.0938 48.8281 44.0938 54.2969
Q44.0938 59.9062 40.1094 62.9062
Q36.1406 65.9219 28.7188 65.9219
Q24.6562 65.9219 20.0156 65.0312
Q15.375 64.1562 9.8125 62.3125
L9.8125 71.0938
Q15.4375 72.6562 20.3438 73.4375
Q25.25 74.2188 29.5938 74.2188
Q40.8281 74.2188 47.3594 69.1094
Q53.9062 64.0156 53.9062 55.3281
Q53.9062 49.2656 50.4375 45.0938
Q46.9688 40.9219 40.5781 39.3125" id="BitstreamVeraSans-Roman-33"/>
      </defs>
      <g transform="translate(52.5425 348.91125)scale(0.12 -0.12)">
       <use xlink:href="#BitstreamVeraSans-Roman-2212"/>
       <use x="83.7890625" xlink:href="#BitstreamVeraSans-Roman-33"/>
      </g>
     </g>
    </g>
    <g id="ytick_3">
     <g id="line2d_16">
      <g>
       <use style="stroke:#000000;stroke-width:0.5;" x="72.0" xlink:href="#m728421d6d4" y="302.4"/>
      </g>
     </g>
     <g id="text_10">
      <!-- −2 -->
      <g transform="translate(52.7825 305.71125)scale(0.12 -0.12)">
       <use xlink:href="#BitstreamVeraSans-Roman-2212"/>
       <use x="83.7890625" xlink:href="#BitstreamVeraSans-Roman-32"/>
      </g>
     </g>
    </g>
    <g id="ytick_4">
     <g id="line2d_17">
      <g>
       <use style="stroke:#000000;stroke-width:0.5;" x="72.0" xlink:href="#m728421d6d4" y="259.2"/>
      </g>
     </g>
     <g id="text_11">
      <!-- −1 -->
      <g transform="translate(52.68875 262.51125)scale(0.12 -0.12)">
       <use xlink:href="#BitstreamVeraSans-Roman-2212"/>
       <use x="83.7890625" xlink:href="#BitstreamVeraSans-Roman-31"/>
      </g>
     </g>
    </g>
    <g id="ytick_5">
     <g id="line2d_18">
      <g>
       <use style="stroke:#000000;stroke-width:0.5;" x="72.0" xlink:href="#m728421d6d4" y="216.0"/>
      </g>
     </g>
     <g id="text_12">
      <!-- 0 -->
      <g transform="translate(61.953125 219.31125)scale(0.12 -0.12)">
       <use xlink:href="#BitstreamVeraSans-Roman-30"/>
      </g>
     </g>
    </g>
    <g id="ytick_6">
     <g id="line2d_19">
      <g>
       <use style="stroke:#000000;stroke-width:0.5;" x="72.0" xlink:href="#m728421d6d4" y="172.8"/>
      </g>
     </g>
     <g id="text_13">
      <!-- 1 -->
      <g transform="translate(62.79125 176.11125)scale(0.12 -0.12)">
       <use xlink:href="#BitstreamVeraSans-Roman-31"/>
      </g>
     </g>
    </g>
    <g id="ytick_7">
     <g id="line2d_20">
      <g>
       <use style="stroke:#000000;stroke-width:0.5;" x="72.0" xlink:href="#m728421d6d4" y="129.6"/>
      </g>
     </g>
     <g id="text_14">
      <!-- 2 -->
      <g transform="translate(62.44625 132.91125)scale(0.12 -0.12)">
       <use xlink:href="#BitstreamVeraSans-Roman-32"/>
      </g>
     </g>
    </g>
    <g id="ytick_8">
     <g id="line2d_21">
      <g>
       <use style="stroke:#000000;stroke-width:0.5;" x="72.0" xlink:href="#m728421d6d4" y="86.4"/>
      </g>
     </g>
     <g id="text_15">
      <!-- 3 -->
      <g transform="translate(62.241875 89.71125)scale(0.12 -0.12)">
       <use xlink:href="#BitstreamVeraSans-Roman-33"/>
      </g>
     </g>
    </g>
    <g id="ytick_9">
     <g id="line2d_22">
      <g>
       <use style="stroke:#000000;stroke-width:0.5;" x="72.0" xlink:href="#m728421d6d4" y="43.2"/>
      </g>
     </g>
     <g id="text_16">
      <!-- 4 -->
      <g transform="translate(61.625 46.51125)scale(0.12 -0.12)">
       <use xlink:href="#BitstreamVeraSans-Roman-34"/>
      </g>
     </g>
    </g>
    <g id="text_17">
     <!-- Current$\,/\,A$ -->
     <defs>
      <path d="
M54.8906 33.0156
L54.8906 0
L45.9062 0
L45.9062 32.7188
Q45.9062 40.4844 42.875 44.3281
Q39.8438 48.1875 33.7969 48.1875
Q26.5156 48.1875 22.3125 43.5469
Q18.1094 38.9219 18.1094 30.9062
L18.1094 0
L9.07812 0
L9.07812 54.6875
L18.1094 54.6875
L18.1094 46.1875
Q21.3438 51.125 25.7031 53.5625
Q30.0781 56 35.7969 56
Q45.2188 56 50.0469 50.1719
Q54.8906 44.3438 54.8906 33.0156" id="BitstreamVeraSans-Roman-6e"/>
      <path d="
M64.4062 67.2812
L64.4062 56.8906
Q59.4219 61.5312 53.7812 63.8125
Q48.1406 66.1094 41.7969 66.1094
Q29.2969 66.1094 22.6562 58.4688
Q16.0156 50.8281 16.0156 36.375
Q16.0156 21.9688 22.6562 14.3281
Q29.2969 6.6875 41.7969 6.6875
Q48.1406 6.6875 53.7812 8.98438
Q59.4219 11.2812 64.4062 15.9219
L64.4062 5.60938
Q59.2344 2.09375 53.4375 0.328125
Q47.6562 -1.42188 41.2188 -1.42188
Q24.6562 -1.42188 15.125 8.70312
Q5.60938 18.8438 5.60938 36.375
Q5.60938 53.9531 15.125 64.0781
Q24.6562 74.2188 41.2188 74.2188
Q47.75 74.2188 53.5312 72.4844
Q59.3281 70.75 64.4062 67.2812" id="BitstreamVeraSans-Roman-43"/>
      <path d="
M4.5 0
Q3.51562 0 3.51562 1.3125
Q3.90625 3.51562 4.78125 3.51562
Q8.84375 3.51562 11.7969 5.125
Q14.75 6.73438 16.8906 10.1094
Q17.0938 10.2969 17.0938 10.2969
L52.7812 70.5156
Q53.5625 71.5781 54.6875 71.5781
L56 71.5781
Q56.2969 71.5781 56.5938 71.4531
Q56.8906 71.3438 57.1094 71.0625
Q57.3281 70.7969 57.3281 70.5156
L63.375 5.90625
Q63.375 5.46875 63.8125 4.59375
Q64.7969 3.51562 71.2969 3.51562
Q72.3125 3.51562 72.3125 2.20312
Q71.9688 0.875 71.75 0.4375
Q71.5312 0 70.6094 0
L45.6094 0
Q44.6719 0 44.6719 1.3125
Q45.2188 3.51562 46 3.51562
Q53.9062 3.51562 54.3906 6.20312
L52.875 22.7031
L28.2188 22.7031
L20.2188 9.28125
Q19.4844 8.20312 19.4844 6.78125
Q19.4844 5.03125 21.1719 4.26562
Q22.8594 3.51562 24.9062 3.51562
Q25.875 3.51562 25.875 2.20312
Q25.5312 0.78125 25.3281 0.390625
Q25.1406 0 24.2188 0
z

M30.1719 26.2188
L52.4844 26.2188
L49.5156 58.5938
z
" id="Cmmi10-41"/>
      <path d="
M18.3125 70.2188
L18.3125 54.6875
L36.8125 54.6875
L36.8125 47.7031
L18.3125 47.7031
L18.3125 18.0156
Q18.3125 11.3281 20.1406 9.42188
Q21.9688 7.51562 27.5938 7.51562
L36.8125 7.51562
L36.8125 0
L27.5938 0
Q17.1875 0 13.2344 3.875
Q9.28125 7.76562 9.28125 18.0156
L9.28125 47.7031
L2.6875 47.7031
L2.6875 54.6875
L9.28125 54.6875
L9.28125 70.2188
z
" id="BitstreamVeraSans-Roman-74"/>
      <path d="
M8.5 21.5781
L8.5 54.6875
L17.4844 54.6875
L17.4844 21.9219
Q17.4844 14.1562 20.5 10.2656
Q23.5312 6.39062 29.5938 6.39062
Q36.8594 6.39062 41.0781 11.0312
Q45.3125 15.6719 45.3125 23.6875
L45.3125 54.6875
L54.2969 54.6875
L54.2969 0
L45.3125 0
L45.3125 8.40625
Q42.0469 3.42188 37.7188 1
Q33.4062 -1.42188 27.6875 -1.42188
Q18.2656 -1.42188 13.375 4.4375
Q8.5 10.2969 8.5 21.5781" id="BitstreamVeraSans-Roman-75"/>
      <path d="
M41.1094 46.2969
Q39.5938 47.1719 37.8125 47.5781
Q36.0312 48 33.8906 48
Q26.2656 48 22.1875 43.0469
Q18.1094 38.0938 18.1094 28.8125
L18.1094 0
L9.07812 0
L9.07812 54.6875
L18.1094 54.6875
L18.1094 46.1875
Q20.9531 51.1719 25.4844 53.5781
Q30.0312 56 36.5312 56
Q37.4531 56 38.5781 55.875
Q39.7031 55.7656 41.0625 55.5156
z
" id="BitstreamVeraSans-Roman-72"/>
     </defs>
     <g transform="translate(44.25375 250.5)rotate(-90.0)scale(0.12 -0.12)">
      <use xlink:href="#BitstreamVeraSans-Roman-43"/>
      <use transform="translate(69.82421875 0.0)" xlink:href="#BitstreamVeraSans-Roman-75"/>
      <use transform="translate(133.203125 0.0)" xlink:href="#BitstreamVeraSans-Roman-72"/>
      <use transform="translate(174.31640625 0.0)" xlink:href="#BitstreamVeraSans-Roman-72"/>
      <use transform="translate(215.4296875 0.0)" xlink:href="#BitstreamVeraSans-Roman-65"/>
      <use transform="translate(276.953125 0.0)" xlink:href="#BitstreamVeraSans-Roman-6e"/>
      <use transform="translate(340.33203125 0.0)" xlink:href="#BitstreamVeraSans-Roman-74"/>
      <use transform="translate(414.658203125 0.0)" xlink:href="#Cmmi10-3d"/>
      <use transform="translate(499.775390625 0.0)" xlink:href="#Cmmi10-41"/>
     </g>
    </g>
   </g>
   <g id="patch_3">
    <path d="
M72 43.2
L518.4 43.2" style="fill:none;stroke:#000000;"/>
   </g>
   <g id="patch_4">
    <path d="
M518.4 388.8
L518.4 43.2" style="fill:none;stroke:#000000;"/>
   </g>
   <g id="patch_5">
    <path d="
M72 388.8
L518.4 388.8" style="fill:none;stroke:#000000;"/>
   </g>
   <g id="patch_6">
    <path d="
M72 388.8
L72 43.2" style="fill:none;stroke:#000000;"/>
   </g>
   <g id="text_18">
    <!-- Chua Circuit -->
    <defs>
     <path id="BitstreamVeraSans-Roman-20"/>
     <path d="
M34.2812 27.4844
Q23.3906 27.4844 19.1875 25
Q14.9844 22.5156 14.9844 16.5
Q14.9844 11.7188 18.1406 8.90625
Q21.2969 6.10938 26.7031 6.10938
Q34.1875 6.10938 38.7031 11.4062
Q43.2188 16.7031 43.2188 25.4844
L43.2188 27.4844
z

M52.2031 31.2031
L52.2031 0
L43.2188 0
L43.2188 8.29688
Q40.1406 3.32812 35.5469 0.953125
Q30.9531 -1.42188 24.3125 -1.42188
Q15.9219 -1.42188 10.9531 3.29688
Q6 8.01562 6 15.9219
Q6 25.1406 12.1719 29.8281
Q18.3594 34.5156 30.6094 34.5156
L43.2188 34.5156
L43.2188 35.4062
Q43.2188 41.6094 39.1406 45
Q35.0625 48.3906 27.6875 48.3906
Q23 48.3906 18.5469 47.2656
Q14.1094 46.1406 10.0156 43.8906
L10.0156 52.2031
Q14.9375 54.1094 19.5781 55.0469
Q24.2188 56 28.6094 56
Q40.4844 56 46.3438 49.8438
Q52.2031 43.7031 52.2031 31.2031" id="BitstreamVeraSans-Roman-61"/>
     <path d="
M54.8906 33.0156
L54.8906 0
L45.9062 0
L45.9062 32.7188
Q45.9062 40.4844 42.875 44.3281
Q39.8438 48.1875 33.7969 48.1875
Q26.5156 48.1875 22.3125 43.5469
Q18.1094 38.9219 18.1094 30.9062
L18.1094 0
L9.07812 0
L9.07812 75.9844
L18.1094 75.9844
L18.1094 46.1875
Q21.3438 51.125 25.7031 53.5625
Q30.0781 56 35.7969 56
Q45.2188 56 50.0469 50.1719
Q54.8906 44.3438 54.8906 33.0156" id="BitstreamVeraSans-Roman-68"/>
     <path d="
M48.7812 52.5938
L48.7812 44.1875
Q44.9688 46.2969 41.1406 47.3438
Q37.3125 48.3906 33.4062 48.3906
Q24.6562 48.3906 19.8125 42.8438
Q14.9844 37.3125 14.9844 27.2969
Q14.9844 17.2812 19.8125 11.7344
Q24.6562 6.20312 33.4062 6.20312
Q37.3125 6.20312 41.1406 7.25
Q44.9688 8.29688 48.7812 10.4062
L48.7812 2.09375
Q45.0156 0.34375 40.9844 -0.53125
Q36.9688 -1.42188 32.4219 -1.42188
Q20.0625 -1.42188 12.7812 6.34375
Q5.51562 14.1094 5.51562 27.2969
Q5.51562 40.6719 12.8594 48.3281
Q20.2188 56 33.0156 56
Q37.1562 56 41.1094 55.1406
Q45.0625 54.2969 48.7812 52.5938" id="BitstreamVeraSans-Roman-63"/>
    </defs>
    <g transform="translate(251.3475 38.2)scale(0.144 -0.144)">
     <use xlink:href="#BitstreamVeraSans-Roman-43"/>
     <use x="69.82421875" xlink:href="#BitstreamVeraSans-Roman-68"/>
     <use x="133.203125" xlink:href="#BitstreamVeraSans-Roman-75"/>
     <use x="196.58203125" xlink:href="#BitstreamVeraSans-Roman-61"/>
     <use x="257.861328125" xlink:href="#BitstreamVeraSans-Roman-20"/>
     <use x="289.6484375" xlink:href="#BitstreamVeraSans-Roman-43"/>
     <use x="359.47265625" xlink:href="#BitstreamVeraSans-Roman-69"/>
     <use x="387.255859375" xlink:href="#BitstreamVeraSans-Roman-72"/>
     <use x="426.119140625" xlink:href="#BitstreamVeraSans-Roman-63"/>
     <use x="481.099609375" xlink:href="#BitstreamVeraSans-Roman-75"/>
     <use x="544.478515625" xlink:href="#BitstreamVeraSans-Roman-69"/>
     <use x="572.26171875" xlink:href="#BitstreamVeraSans-Roman-74"/>
    </g>
   </g>
   <g id="legend_1">
    <g id="patch_7">
     <path d="
M79.2 75.8565
L144.877 75.8565
L144.877 50.4
L79.2 50.4
L79.2 75.8565
z
" style="fill:#ffffff;stroke:#000000;"/>
    </g>
    <g id="line2d_23">
     <path d="
M89.28 62.0617
L109.44 62.0617" style="fill:none;stroke:#0000ff;stroke-linecap:square;"/>
    </g>
    <g id="line2d_24"/>
    <g id="text_19">
     <!-- L.i -->
     <defs>
      <path d="
M10.6875 12.4062
L21 12.4062
L21 0
L10.6875 0
z
" id="BitstreamVeraSans-Roman-2e"/>
      <path d="
M9.8125 72.9062
L19.6719 72.9062
L19.6719 8.29688
L55.1719 8.29688
L55.1719 0
L9.8125 0
z
" id="BitstreamVeraSans-Roman-4c"/>
     </defs>
     <g transform="translate(125.28 67.10175)scale(0.144 -0.144)">
      <use xlink:href="#BitstreamVeraSans-Roman-4c"/>
      <use x="55.712890625" xlink:href="#BitstreamVeraSans-Roman-2e"/>
      <use x="87.5" xlink:href="#BitstreamVeraSans-Roman-69"/>
     </g>
    </g>
   </g>
  </g>
  <g id="axes_2">
   <g id="line2d_25">
    <path clip-path="url(#p7ff5b81e1d)" d="
M72 216
L72.8928 198.522
L73.7856 182.266
L75.5712 153.536
L77.3568 130.065
L78.2496 120.38
L79.1424 112.098
L80.0352 105.241
L80.928 99.8225
L81.8208 95.8525
L82.7136 93.331
L83.6064 92.2494
L84.4992 92.5913
L85.392 94.3302
L86.2848 97.4302
L87.1776 101.846
L88.0704 107.523
L88.9632 114.397
L89.856 122.393
L91.6416 141.414
L93.4272 163.827
L96.1056 201.877
L102.355 293.968
L104.141 316.583
L105.926 335.848
L106.819 343.98
L107.712 350.996
L108.605 356.826
L109.498 361.407
L110.39 364.686
L111.283 366.626
L111.8 367.126
L111.8 367.126
L112.176 367.203
L113.069 366.465
L113.962 364.532
L114.854 361.534
L115.747 357.622
L116.64 352.952
L118.426 341.991
L121.104 323.745
L123.782 303.858
L126.461 281.735
L129.139 257.574
L136.282 190.95
L138.067 176.125
L139.853 162.964
L141.638 151.893
L142.531 147.261
L143.424 143.285
L144.317 140
L145.21 137.437
L146.102 135.618
L146.995 134.562
L147.888 134.278
L148.781 134.772
L149.674 136.039
L150.566 138.072
L151.459 140.852
L152.352 144.356
L153.245 148.557
L154.138 153.416
L155.923 164.935
L157.709 178.511
L160.387 201.663
L166.637 258.612
L168.422 272.92
L170.208 285.312
L171.994 295.306
L172.886 299.277
L173.779 302.506
L174.672 304.96
L175.565 306.611
L176.458 307.439
L177.35 307.431
L178.243 306.582
L179.136 304.894
L180.029 302.379
L180.922 299.053
L181.814 294.943
L182.707 290.083
L184.493 278.275
L186.278 264.031
L188.064 247.845
L190.742 221.192
L195.206 175.854
L196.992 159.348
L198.778 144.729
L200.563 132.557
L201.456 127.542
L202.349 123.312
L203.242 119.908
L204.134 117.369
L205.027 115.722
L205.92 114.987
L206.813 115.178
L207.706 116.298
L208.598 118.342
L209.491 121.298
L210.384 125.142
L211.277 129.819
L213.062 141.359
L214.848 155.254
L216.634 170.852
L219.312 196.19
L227.347 274.424
L229.133 289.65
L230.918 302.689
L231.811 308.205
L232.704 312.966
L233.597 316.916
L234.49 320.011
L235.382 322.209
L236.275 323.48
L237.168 323.804
L238.061 323.168
L238.954 321.567
L239.846 319.01
L240.739 315.509
L241.632 311.09
L242.525 305.786
L243.418 299.638
L245.203 285.018
L246.989 267.72
L248.774 248.34
L252.346 206.12
L255.917 164.383
L257.702 145.629
L259.488 129.247
L261.274 115.867
L262.166 110.473
L263.059 106.018
L263.952 102.549
L264.845 100.104
L265.738 98.7113
L266.63 98.3903
L267.523 99.1503
L268.416 100.99
L269.309 103.869
L270.202 107.694
L271.094 112.366
L272.88 123.823
L274.666 137.341
L281.808 194.753
L283.594 206.11
L285.379 215.438
L287.165 222.883
L288.058 225.94
L288.95 228.569
L289.843 230.784
L290.736 232.596
L291.629 234.016
L292.522 235.055
L293.414 235.727
L294.307 236.044
L295.2 236.02
L296.093 235.672
L296.986 235.016
L297.878 234.069
L298.771 232.851
L299.664 231.382
L301.45 227.779
L303.235 223.447
L305.914 216.027
L311.27 200.56
L313.056 196.005
L314.842 192.076
L316.627 188.936
L317.52 187.705
L318.413 186.72
L319.306 185.991
L320.198 185.527
L321.091 185.336
L321.984 185.42
L322.877 185.783
L323.77 186.422
L324.662 187.333
L325.555 188.51
L326.448 189.946
L328.234 193.541
L330.019 197.999
L331.805 203.168
L334.483 211.854
L340.733 232.75
L342.518 237.89
L344.304 242.286
L346.09 245.765
L346.982 247.116
L347.875 248.19
L348.768 248.972
L349.661 249.457
L350.554 249.637
L351.446 249.507
L352.339 249.068
L353.232 248.323
L354.125 247.275
L355.018 245.933
L355.91 244.307
L357.696 240.261
L359.482 235.271
L361.267 229.51
L363.946 219.875
L369.302 199.941
L371.088 193.999
L372.874 188.795
L374.659 184.529
L375.552 182.803
L376.445 181.371
L377.338 180.25
L378.23 179.45
L379.123 178.982
L380.016 178.852
L380.909 179.063
L381.802 179.616
L382.694 180.506
L383.587 181.729
L384.48 183.275
L385.373 185.131
L387.158 189.712
L388.944 195.316
L390.73 201.752
L393.408 212.457
L398.765 234.417
L400.55 240.908
L402.336 246.56
L404.122 251.155
L405.014 252.998
L405.907 254.511
L406.8 255.679
L407.693 256.489
L408.586 256.931
L409.478 256.999
L410.371 256.689
L411.264 256.004
L412.157 254.946
L413.05 253.523
L413.942 251.746
L414.835 249.63
L416.621 244.45
L418.406 238.16
L420.192 230.976
L422.87 219.089
L427.334 198.727
L429.12 191.265
L430.906 184.623
L432.691 179.057
L433.584 176.747
L434.477 174.784
L435.37 173.189
L436.262 171.978
L437.155 171.165
L438.048 170.76
L438.941 170.769
L439.834 171.193
L440.726 172.034
L441.619 173.284
L442.512 174.934
L443.405 176.972
L444.298 179.383
L446.083 185.234
L447.869 192.291
L449.654 200.307
L452.333 213.501
L456.797 235.932
L458.582 244.094
L460.368 251.32
L462.154 257.332
L463.046 259.807
L463.939 261.894
L464.832 263.571
L465.725 264.821
L466.618 265.629
L467.51 265.985
L468.403 265.883
L469.296 265.321
L470.189 264.302
L471.082 262.833
L471.974 260.922
L472.867 258.587
L473.76 255.846
L475.546 249.24
L477.331 241.33
L479.117 232.389
L481.795 217.751
L486.259 193.049
L488.045 184.127
L489.83 176.27
L491.616 169.782
L492.509 167.133
L493.402 164.918
L494.294 163.16
L495.187 161.877
L496.08 161.085
L496.973 160.793
L497.866 161.008
L498.758 161.731
L499.651 162.956
L500.544 164.678
L501.437 166.883
L502.33 169.552
L503.222 172.667
L505.008 180.117
L506.794 188.981
L508.579 198.947
L512.15 220.743
L515.722 242.374
L517.507 252.123
L518.4 256.565
L518.4 256.565" style="fill:none;stroke:#0000ff;stroke-dasharray:3.000000,3.000000;stroke-dashoffset:0.0;"/>
   </g>
   <g id="matplotlib.axis_3">
    <g id="ytick_10">
     <g id="line2d_26">
      <defs>
       <path d="
M0 0
L-4 0" id="mcb0005524f" style="stroke:#000000;stroke-width:0.5;"/>
      </defs>
      <g>
       <use style="stroke:#000000;stroke-width:0.5;" x="518.4" xlink:href="#mcb0005524f" y="388.8"/>
      </g>
     </g>
     <g id="text_20">
      <!-- −0.06 -->
      <defs>
       <path d="
M33.0156 40.375
Q26.375 40.375 22.4844 35.8281
Q18.6094 31.2969 18.6094 23.3906
Q18.6094 15.5312 22.4844 10.9531
Q26.375 6.39062 33.0156 6.39062
Q39.6562 6.39062 43.5312 10.9531
Q47.4062 15.5312 47.4062 23.3906
Q47.4062 31.2969 43.5312 35.8281
Q39.6562 40.375 33.0156 40.375
M52.5938 71.2969
L52.5938 62.3125
Q48.875 64.0625 45.0938 64.9844
Q41.3125 65.9219 37.5938 65.9219
Q27.8281 65.9219 22.6719 59.3281
Q17.5312 52.7344 16.7969 39.4062
Q19.6719 43.6562 24.0156 45.9219
Q28.375 48.1875 33.5938 48.1875
Q44.5781 48.1875 50.9531 41.5156
Q57.3281 34.8594 57.3281 23.3906
Q57.3281 12.1562 50.6875 5.35938
Q44.0469 -1.42188 33.0156 -1.42188
Q20.3594 -1.42188 13.6719 8.26562
Q6.98438 17.9688 6.98438 36.375
Q6.98438 53.6562 15.1875 63.9375
Q23.3906 74.2188 37.2031 74.2188
Q40.9219 74.2188 44.7031 73.4844
Q48.4844 72.75 52.5938 71.2969" id="BitstreamVeraSans-Roman-36"/>
      </defs>
      <g transform="translate(522.4 392.11125)scale(0.12 -0.12)">
       <use xlink:href="#BitstreamVeraSans-Roman-2212"/>
       <use x="83.7890625" xlink:href="#BitstreamVeraSans-Roman-30"/>
       <use x="147.412109375" xlink:href="#BitstreamVeraSans-Roman-2e"/>
       <use x="179.19921875" xlink:href="#BitstreamVeraSans-Roman-30"/>
       <use x="242.822265625" xlink:href="#BitstreamVeraSans-Roman-36"/>
      </g>
     </g>
    </g>
    <g id="ytick_11">
     <g id="line2d_27">
      <g>
       <use style="stroke:#000000;stroke-width:0.5;" x="518.4" xlink:href="#mcb0005524f" y="331.2"/>
      </g>
     </g>
     <g id="text_21">
      <!-- −0.04 -->
      <g transform="translate(522.4 334.51125)scale(0.12 -0.12)">
       <use xlink:href="#BitstreamVeraSans-Roman-2212"/>
       <use x="83.7890625" xlink:href="#BitstreamVeraSans-Roman-30"/>
       <use x="147.412109375" xlink:href="#BitstreamVeraSans-Roman-2e"/>
       <use x="179.19921875" xlink:href="#BitstreamVeraSans-Roman-30"/>
       <use x="242.822265625" xlink:href="#BitstreamVeraSans-Roman-34"/>
      </g>
     </g>
    </g>
    <g id="ytick_12">
     <g id="line2d_28">
      <g>
       <use style="stroke:#000000;stroke-width:0.5;" x="518.4" xlink:href="#mcb0005524f" y="273.6"/>
      </g>
     </g>
     <g id="text_22">
      <!-- −0.02 -->
      <g transform="translate(522.4 276.91125)scale(0.12 -0.12)">
       <use xlink:href="#BitstreamVeraSans-Roman-2212"/>
       <use x="83.7890625" xlink:href="#BitstreamVeraSans-Roman-30"/>
       <use x="147.412109375" xlink:href="#BitstreamVeraSans-Roman-2e"/>
       <use x="179.19921875" xlink:href="#BitstreamVeraSans-Roman-30"/>
       <use x="242.822265625" xlink:href="#BitstreamVeraSans-Roman-32"/>
      </g>
     </g>
    </g>
    <g id="ytick_13">
     <g id="line2d_29">
      <g>
       <use style="stroke:#000000;stroke-width:0.5;" x="518.4" xlink:href="#mcb0005524f" y="216.0"/>
      </g>
     </g>
     <g id="text_23">
      <!-- 0.00 -->
      <g transform="translate(522.4 219.31125)scale(0.12 -0.12)">
       <use xlink:href="#BitstreamVeraSans-Roman-30"/>
       <use x="63.623046875" xlink:href="#BitstreamVeraSans-Roman-2e"/>
       <use x="95.41015625" xlink:href="#BitstreamVeraSans-Roman-30"/>
       <use x="159.033203125" xlink:href="#BitstreamVeraSans-Roman-30"/>
      </g>
     </g>
    </g>
    <g id="ytick_14">
     <g id="line2d_30">
      <g>
       <use style="stroke:#000000;stroke-width:0.5;" x="518.4" xlink:href="#mcb0005524f" y="158.4"/>
      </g>
     </g>
     <g id="text_24">
      <!-- 0.02 -->
      <g transform="translate(522.4 161.71125)scale(0.12 -0.12)">
       <use xlink:href="#BitstreamVeraSans-Roman-30"/>
       <use x="63.623046875" xlink:href="#BitstreamVeraSans-Roman-2e"/>
       <use x="95.41015625" xlink:href="#BitstreamVeraSans-Roman-30"/>
       <use x="159.033203125" xlink:href="#BitstreamVeraSans-Roman-32"/>
      </g>
     </g>
    </g>
    <g id="ytick_15">
     <g id="line2d_31">
      <g>
       <use style="stroke:#000000;stroke-width:0.5;" x="518.4" xlink:href="#mcb0005524f" y="100.8"/>
      </g>
     </g>
     <g id="text_25">
      <!-- 0.04 -->
      <g transform="translate(522.4 104.11125)scale(0.12 -0.12)">
       <use xlink:href="#BitstreamVeraSans-Roman-30"/>
       <use x="63.623046875" xlink:href="#BitstreamVeraSans-Roman-2e"/>
       <use x="95.41015625" xlink:href="#BitstreamVeraSans-Roman-30"/>
       <use x="159.033203125" xlink:href="#BitstreamVeraSans-Roman-34"/>
      </g>
     </g>
    </g>
    <g id="ytick_16">
     <g id="line2d_32">
      <g>
       <use style="stroke:#000000;stroke-width:0.5;" x="518.4" xlink:href="#mcb0005524f" y="43.2"/>
      </g>
     </g>
     <g id="text_26">
      <!-- 0.06 -->
      <g transform="translate(522.4 46.51125)scale(0.12 -0.12)">
       <use xlink:href="#BitstreamVeraSans-Roman-30"/>
       <use x="63.623046875" xlink:href="#BitstreamVeraSans-Roman-2e"/>
       <use x="95.41015625" xlink:href="#BitstreamVeraSans-Roman-30"/>
       <use x="159.033203125" xlink:href="#BitstreamVeraSans-Roman-36"/>
      </g>
     </g>
    </g>
    <g id="text_27">
     <!-- Derivative of current$\,/\,A\,s^{-1}$ -->
     <defs>
      <path d="
M9.28125 0
L9.28125 3.51562
Q21.7812 3.51562 21.7812 6.6875
L21.7812 59.1875
Q16.6094 56.6875 8.6875 56.6875
L8.6875 60.2031
Q20.9531 60.2031 27.2031 66.6094
L28.6094 66.6094
Q28.9531 66.6094 29.2656 66.3281
Q29.5938 66.0625 29.5938 65.7188
L29.5938 6.6875
Q29.5938 3.51562 42.0938 3.51562
L42.0938 0
z
" id="Cmr10-31"/>
      <path d="
M10.2031 23
Q9.375 23 8.82812 23.625
Q8.29688 24.2656 8.29688 25
Q8.29688 25.7344 8.82812 26.3594
Q9.375 27 10.2031 27
L67.5781 27
Q68.3594 27 68.875 26.3594
Q69.3906 25.7344 69.3906 25
Q69.3906 24.2656 68.875 23.625
Q68.3594 23 67.5781 23
z
" id="Cmsy10-a1"/>
      <path d="
M30.6094 48.3906
Q23.3906 48.3906 19.1875 42.75
Q14.9844 37.1094 14.9844 27.2969
Q14.9844 17.4844 19.1562 11.8438
Q23.3438 6.20312 30.6094 6.20312
Q37.7969 6.20312 41.9844 11.8594
Q46.1875 17.5312 46.1875 27.2969
Q46.1875 37.0156 41.9844 42.7031
Q37.7969 48.3906 30.6094 48.3906
M30.6094 56
Q42.3281 56 49.0156 48.375
Q55.7188 40.7656 55.7188 27.2969
Q55.7188 13.875 49.0156 6.21875
Q42.3281 -1.42188 30.6094 -1.42188
Q18.8438 -1.42188 12.1719 6.21875
Q5.51562 13.875 5.51562 27.2969
Q5.51562 40.7656 12.1719 48.375
Q18.8438 56 30.6094 56" id="BitstreamVeraSans-Roman-6f"/>
      <path d="
M19.6719 64.7969
L19.6719 8.10938
L31.5938 8.10938
Q46.6875 8.10938 53.6875 14.9375
Q60.6875 21.7812 60.6875 36.5312
Q60.6875 51.1719 53.6875 57.9844
Q46.6875 64.7969 31.5938 64.7969
z

M9.8125 72.9062
L30.0781 72.9062
Q51.2656 72.9062 61.1719 64.0938
Q71.0938 55.2812 71.0938 36.5312
Q71.0938 17.6719 61.125 8.82812
Q51.1719 0 30.0781 0
L9.8125 0
z
" id="BitstreamVeraSans-Roman-44"/>
      <path d="
M2.98438 54.6875
L12.5 54.6875
L29.5938 8.79688
L46.6875 54.6875
L56.2031 54.6875
L35.6875 0
L23.4844 0
z
" id="BitstreamVeraSans-Roman-76"/>
      <path d="
M37.1094 75.9844
L37.1094 68.5
L28.5156 68.5
Q23.6875 68.5 21.7969 66.5469
Q19.9219 64.5938 19.9219 59.5156
L19.9219 54.6875
L34.7188 54.6875
L34.7188 47.7031
L19.9219 47.7031
L19.9219 0
L10.8906 0
L10.8906 47.7031
L2.29688 47.7031
L2.29688 54.6875
L10.8906 54.6875
L10.8906 58.5
Q10.8906 67.625 15.1406 71.7969
Q19.3906 75.9844 28.6094 75.9844
z
" id="BitstreamVeraSans-Roman-66"/>
     </defs>
     <g transform="translate(573.03 301.44)rotate(-90.0)scale(0.12 -0.12)">
      <use transform="translate(0.0 0.8578125)" xlink:href="#BitstreamVeraSans-Roman-44"/>
      <use transform="translate(77.001953125 0.8578125)" xlink:href="#BitstreamVeraSans-Roman-65"/>
      <use transform="translate(138.525390625 0.8578125)" xlink:href="#BitstreamVeraSans-Roman-72"/>
      <use transform="translate(179.638671875 0.8578125)" xlink:href="#BitstreamVeraSans-Roman-69"/>
      <use transform="translate(207.421875 0.8578125)" xlink:href="#BitstreamVeraSans-Roman-76"/>
      <use transform="translate(266.6015625 0.8578125)" xlink:href="#BitstreamVeraSans-Roman-61"/>
      <use transform="translate(327.880859375 0.8578125)" xlink:href="#BitstreamVeraSans-Roman-74"/>
      <use transform="translate(367.08984375 0.8578125)" xlink:href="#BitstreamVeraSans-Roman-69"/>
      <use transform="translate(394.873046875 0.8578125)" xlink:href="#BitstreamVeraSans-Roman-76"/>
      <use transform="translate(454.052734375 0.8578125)" xlink:href="#BitstreamVeraSans-Roman-65"/>
      <use transform="translate(515.576171875 0.8578125)" xlink:href="#BitstreamVeraSans-Roman-20"/>
      <use transform="translate(547.36328125 0.8578125)" xlink:href="#BitstreamVeraSans-Roman-6f"/>
      <use transform="translate(608.544921875 0.8578125)" xlink:href="#BitstreamVeraSans-Roman-66"/>
      <use transform="translate(643.75 0.8578125)" xlink:href="#BitstreamVeraSans-Roman-20"/>
      <use transform="translate(675.537109375 0.8578125)" xlink:href="#BitstreamVeraSans-Roman-63"/>
      <use transform="translate(730.517578125 0.8578125)" xlink:href="#BitstreamVeraSans-Roman-75"/>
      <use transform="translate(793.896484375 0.8578125)" xlink:href="#BitstreamVeraSans-Roman-72"/>
      <use transform="translate(835.009765625 0.8578125)" xlink:href="#BitstreamVeraSans-Roman-72"/>
      <use transform="translate(876.123046875 0.8578125)" xlink:href="#BitstreamVeraSans-Roman-65"/>
      <use transform="translate(937.646484375 0.8578125)" xlink:href="#BitstreamVeraSans-Roman-6e"/>
      <use transform="translate(1001.02539062 0.8578125)" xlink:href="#BitstreamVeraSans-Roman-74"/>
      <use transform="translate(1075.3515625 0.8578125)" xlink:href="#Cmmi10-3d"/>
      <use transform="translate(1160.46875 0.8578125)" xlink:href="#Cmmi10-41"/>
      <use transform="translate(1270.5859375 0.8578125)" xlink:href="#Cmmi10-73"/>
      <use transform="translate(1317.36328125 43.3734375)scale(0.7)" xlink:href="#Cmsy10-a1"/>
      <use transform="translate(1371.74316406 43.3734375)scale(0.7)" xlink:href="#Cmr10-31"/>
     </g>
    </g>
   </g>
   <g id="legend_2">
    <g id="patch_8">
     <path d="
M410.252 75.8565
L511.2 75.8565
L511.2 50.4
L410.252 50.4
L410.252 75.8565
z
" style="fill:#ffffff;stroke:#000000;"/>
    </g>
    <g id="line2d_33">
     <path d="
M420.332 62.0617
L440.492 62.0617" style="fill:none;stroke:#0000ff;stroke-dasharray:3.000000,3.000000;stroke-dashoffset:0.0;"/>
    </g>
    <g id="line2d_34"/>
    <g id="text_28">
     <!-- L.der(i) -->
     <defs>
      <path d="
M8.01562 75.875
L15.8281 75.875
Q23.1406 64.3594 26.7812 53.3125
Q30.4219 42.2812 30.4219 31.3906
Q30.4219 20.4531 26.7812 9.375
Q23.1406 -1.70312 15.8281 -13.1875
L8.01562 -13.1875
Q14.5 -2 17.7031 9.0625
Q20.9062 20.125 20.9062 31.3906
Q20.9062 42.6719 17.7031 53.6562
Q14.5 64.6562 8.01562 75.875" id="BitstreamVeraSans-Roman-29"/>
      <path d="
M45.4062 46.3906
L45.4062 75.9844
L54.3906 75.9844
L54.3906 0
L45.4062 0
L45.4062 8.20312
Q42.5781 3.32812 38.25 0.953125
Q33.9375 -1.42188 27.875 -1.42188
Q17.9688 -1.42188 11.7344 6.48438
Q5.51562 14.4062 5.51562 27.2969
Q5.51562 40.1875 11.7344 48.0938
Q17.9688 56 27.875 56
Q33.9375 56 38.25 53.625
Q42.5781 51.2656 45.4062 46.3906
M14.7969 27.2969
Q14.7969 17.3906 18.875 11.75
Q22.9531 6.10938 30.0781 6.10938
Q37.2031 6.10938 41.2969 11.75
Q45.4062 17.3906 45.4062 27.2969
Q45.4062 37.2031 41.2969 42.8438
Q37.2031 48.4844 30.0781 48.4844
Q22.9531 48.4844 18.875 42.8438
Q14.7969 37.2031 14.7969 27.2969" id="BitstreamVeraSans-Roman-64"/>
      <path d="
M31 75.875
Q24.4688 64.6562 21.2812 53.6562
Q18.1094 42.6719 18.1094 31.3906
Q18.1094 20.125 21.3125 9.0625
Q24.5156 -2 31 -13.1875
L23.1875 -13.1875
Q15.875 -1.70312 12.2344 9.375
Q8.59375 20.4531 8.59375 31.3906
Q8.59375 42.2812 12.2031 53.3125
Q15.8281 64.3594 23.1875 75.875
z
" id="BitstreamVeraSans-Roman-28"/>
     </defs>
     <g transform="translate(456.3315 67.10175)scale(0.144 -0.144)">
      <use xlink:href="#BitstreamVeraSans-Roman-4c"/>
      <use x="55.712890625" xlink:href="#BitstreamVeraSans-Roman-2e"/>
      <use x="87.5" xlink:href="#BitstreamVeraSans-Roman-64"/>
      <use x="150.9765625" xlink:href="#BitstreamVeraSans-Roman-65"/>
      <use x="212.5" xlink:href="#BitstreamVeraSans-Roman-72"/>
      <use x="253.61328125" xlink:href="#BitstreamVeraSans-Roman-28"/>
      <use x="292.626953125" xlink:href="#BitstreamVeraSans-Roman-69"/>
      <use x="320.41015625" xlink:href="#BitstreamVeraSans-Roman-29"/>
     </g>
    </g>
   </g>
  </g>
 </g>
 <defs>
  <clipPath id="p7ff5b81e1d">
   <rect height="345.6" width="446.4" x="72.0" y="43.2"/>
  </clipPath>
 </defs>
</svg>
