<?xml version="1.0" encoding="utf-8" standalone="no"?>
<!DOCTYPE svg PUBLIC "-//W3C//DTD SVG 1.1//EN"
  "http://www.w3.org/Graphics/SVG/1.1/DTD/svg11.dtd">
<!-- Created with matplotlib (http://matplotlib.org/) -->
<svg height="432pt" version="1.1" viewBox="0 0 576 432" width="576pt" xmlns="http://www.w3.org/2000/svg" xmlns:xlink="http://www.w3.org/1999/xlink">
 <defs>
  <style type="text/css">
*{stroke-linecap:butt;stroke-linejoin:round;}
  </style>
 </defs>
 <g id="figure_1">
  <g id="patch_1">
   <path d="
M0 432
L576 432
L576 0
L0 0
z
" style="fill:#ffffff;"/>
  </g>
  <g id="axes_1">
   <g id="patch_2">
    <path d="
M28.8 206.4
L275.657 206.4
L275.657 43.2
L28.8 43.2
z
" style="fill:#ffffff;"/>
   </g>
   <g id="patch_3">
    <path clip-path="url(#pa44e201d42)" d="
M122.034 84.7815
L136.914 84.7815
C148.075 84.7815 155.515 84.7815 166.675 84.7815
L181.556 84.7815
L222.228 84.7815
L222.228 84.7815
L222.228 84.5935
L228.666 92.2656
L222.228 99.9377
L222.228 99.7497
L220.662 99.7497
L222.228 99.7497
L182.496 99.7497
C193.029 99.7497 203.142 103.939 210.591 111.387
C218.039 118.836 222.228 128.949 222.228 139.482
L222.228 151.387
L222.416 151.387
L202.675 167.951
L182.934 151.387
L183.122 151.387
L183.122 139.482
C183.122 139.316 183.056 139.157 182.939 139.039
C182.821 138.922 182.662 138.856 182.496 138.856
L181.556 138.856
L181.556 138.856
L166.675 138.856
C155.515 138.856 148.075 138.856 136.914 138.856
L121.094 138.856
C106.592 138.856 92.6689 133.089 82.4145 122.834
C72.1601 112.58 66.393 98.6569 66.393 84.1549
L66.393 72.2505
L93.4301 94.9373
L120.467 72.2505
L120.467 84.1549
C120.467 84.321 120.533 84.4805 120.651 84.598
C120.768 84.7154 120.928 84.7815 121.094 84.7815
L122.034 84.7815
z
" style="fill:#bfd1d4;stroke:#000000;stroke-width:0.5;"/>
   </g>
   <g id="patch_4">
    <path d="
M28.8 43.2
L275.657 43.2" style="fill:none;stroke:#000000;"/>
   </g>
   <g id="patch_5">
    <path d="
M275.657 206.4
L275.657 43.2" style="fill:none;stroke:#000000;"/>
   </g>
   <g id="patch_6">
    <path d="
M28.8 206.4
L275.657 206.4" style="fill:none;stroke:#000000;"/>
   </g>
   <g id="patch_7">
    <path d="
M28.8 206.4
L28.8 43.2" style="fill:none;stroke:#000000;"/>
   </g>
   <g id="text_1">
    <!-- Tank 1 -->
    <defs>
     <path id="BitstreamVeraSans-Roman-20"/>
     <path d="
M12.4062 8.29688
L28.5156 8.29688
L28.5156 63.9219
L10.9844 60.4062
L10.9844 69.3906
L28.4219 72.9062
L38.2812 72.9062
L38.2812 8.29688
L54.3906 8.29688
L54.3906 0
L12.4062 0
z
" id="BitstreamVeraSans-Roman-31"/>
     <path d="
M54.8906 33.0156
L54.8906 0
L45.9062 0
L45.9062 32.7188
Q45.9062 40.4844 42.875 44.3281
Q39.8438 48.1875 33.7969 48.1875
Q26.5156 48.1875 22.3125 43.5469
Q18.1094 38.9219 18.1094 30.9062
L18.1094 0
L9.07812 0
L9.07812 54.6875
L18.1094 54.6875
L18.1094 46.1875
Q21.3438 51.125 25.7031 53.5625
Q30.0781 56 35.7969 56
Q45.2188 56 50.0469 50.1719
Q54.8906 44.3438 54.8906 33.0156" id="BitstreamVeraSans-Roman-6e"/>
     <path d="
M9.07812 75.9844
L18.1094 75.9844
L18.1094 31.1094
L44.9219 54.6875
L56.3906 54.6875
L27.3906 29.1094
L57.625 0
L45.9062 0
L18.1094 26.7031
L18.1094 0
L9.07812 0
z
" id="BitstreamVeraSans-Roman-6b"/>
     <path d="
M-0.296875 72.9062
L61.375 72.9062
L61.375 64.5938
L35.5 64.5938
L35.5 0
L25.5938 0
L25.5938 64.5938
L-0.296875 64.5938
z
" id="BitstreamVeraSans-Roman-54"/>
     <path d="
M34.2812 27.4844
Q23.3906 27.4844 19.1875 25
Q14.9844 22.5156 14.9844 16.5
Q14.9844 11.7188 18.1406 8.90625
Q21.2969 6.10938 26.7031 6.10938
Q34.1875 6.10938 38.7031 11.4062
Q43.2188 16.7031 43.2188 25.4844
L43.2188 27.4844
z

M52.2031 31.2031
L52.2031 0
L43.2188 0
L43.2188 8.29688
Q40.1406 3.32812 35.5469 0.953125
Q30.9531 -1.42188 24.3125 -1.42188
Q15.9219 -1.42188 10.9531 3.29688
Q6 8.01562 6 15.9219
Q6 25.1406 12.1719 29.8281
Q18.3594 34.5156 30.6094 34.5156
L43.2188 34.5156
L43.2188 35.4062
Q43.2188 41.6094 39.1406 45
Q35.0625 48.3906 27.6875 48.3906
Q23 48.3906 18.5469 47.2656
Q14.1094 46.1406 10.0156 43.8906
L10.0156 52.2031
Q14.9375 54.1094 19.5781 55.0469
Q24.2188 56 28.6094 56
Q40.4844 56 46.3438 49.8438
Q52.2031 43.7031 52.2031 31.2031" id="BitstreamVeraSans-Roman-61"/>
    </defs>
    <g transform="translate(183.85867669 173.942101944)scale(0.12 -0.12)">
     <use xlink:href="#BitstreamVeraSans-Roman-54"/>
     <use x="44.583984375" xlink:href="#BitstreamVeraSans-Roman-61"/>
     <use x="105.86328125" xlink:href="#BitstreamVeraSans-Roman-6e"/>
     <use x="169.2421875" xlink:href="#BitstreamVeraSans-Roman-6b"/>
     <use x="227.15234375" xlink:href="#BitstreamVeraSans-Roman-20"/>
     <use x="258.939453125" xlink:href="#BitstreamVeraSans-Roman-31"/>
    </g>
    <!-- 62.4 kg/s -->
    <defs>
     <path d="
M19.1875 8.29688
L53.6094 8.29688
L53.6094 0
L7.32812 0
L7.32812 8.29688
Q12.9375 14.1094 22.625 23.8906
Q32.3281 33.6875 34.8125 36.5312
Q39.5469 41.8438 41.4219 45.5312
Q43.3125 49.2188 43.3125 52.7812
Q43.3125 58.5938 39.2344 62.25
Q35.1562 65.9219 28.6094 65.9219
Q23.9688 65.9219 18.8125 64.3125
Q13.6719 62.7031 7.8125 59.4219
L7.8125 69.3906
Q13.7656 71.7812 18.9375 73
Q24.125 74.2188 28.4219 74.2188
Q39.75 74.2188 46.4844 68.5469
Q53.2188 62.8906 53.2188 53.4219
Q53.2188 48.9219 51.5312 44.8906
Q49.8594 40.875 45.4062 35.4062
Q44.1875 33.9844 37.6406 27.2188
Q31.1094 20.4531 19.1875 8.29688" id="BitstreamVeraSans-Roman-32"/>
     <path d="
M33.0156 40.375
Q26.375 40.375 22.4844 35.8281
Q18.6094 31.2969 18.6094 23.3906
Q18.6094 15.5312 22.4844 10.9531
Q26.375 6.39062 33.0156 6.39062
Q39.6562 6.39062 43.5312 10.9531
Q47.4062 15.5312 47.4062 23.3906
Q47.4062 31.2969 43.5312 35.8281
Q39.6562 40.375 33.0156 40.375
M52.5938 71.2969
L52.5938 62.3125
Q48.875 64.0625 45.0938 64.9844
Q41.3125 65.9219 37.5938 65.9219
Q27.8281 65.9219 22.6719 59.3281
Q17.5312 52.7344 16.7969 39.4062
Q19.6719 43.6562 24.0156 45.9219
Q28.375 48.1875 33.5938 48.1875
Q44.5781 48.1875 50.9531 41.5156
Q57.3281 34.8594 57.3281 23.3906
Q57.3281 12.1562 50.6875 5.35938
Q44.0469 -1.42188 33.0156 -1.42188
Q20.3594 -1.42188 13.6719 8.26562
Q6.98438 17.9688 6.98438 36.375
Q6.98438 53.6562 15.1875 63.9375
Q23.3906 74.2188 37.2031 74.2188
Q40.9219 74.2188 44.7031 73.4844
Q48.4844 72.75 52.5938 71.2969" id="BitstreamVeraSans-Roman-36"/>
     <path d="
M37.7969 64.3125
L12.8906 25.3906
L37.7969 25.3906
z

M35.2031 72.9062
L47.6094 72.9062
L47.6094 25.3906
L58.0156 25.3906
L58.0156 17.1875
L47.6094 17.1875
L47.6094 0
L37.7969 0
L37.7969 17.1875
L4.89062 17.1875
L4.89062 26.7031
z
" id="BitstreamVeraSans-Roman-34"/>
     <path d="
M10.6875 12.4062
L21 12.4062
L21 0
L10.6875 0
z
" id="BitstreamVeraSans-Roman-2e"/>
     <path d="
M25.3906 72.9062
L33.6875 72.9062
L8.29688 -9.28125
L0 -9.28125
z
" id="BitstreamVeraSans-Roman-2f"/>
     <path d="
M45.4062 27.9844
Q45.4062 37.75 41.375 43.1094
Q37.3594 48.4844 30.0781 48.4844
Q22.8594 48.4844 18.8281 43.1094
Q14.7969 37.75 14.7969 27.9844
Q14.7969 18.2656 18.8281 12.8906
Q22.8594 7.51562 30.0781 7.51562
Q37.3594 7.51562 41.375 12.8906
Q45.4062 18.2656 45.4062 27.9844
M54.3906 6.78125
Q54.3906 -7.17188 48.1875 -13.9844
Q42 -20.7969 29.2031 -20.7969
Q24.4688 -20.7969 20.2656 -20.0938
Q16.0625 -19.3906 12.1094 -17.9219
L12.1094 -9.1875
Q16.0625 -11.3281 19.9219 -12.3438
Q23.7812 -13.375 27.7812 -13.375
Q36.625 -13.375 41.0156 -8.76562
Q45.4062 -4.15625 45.4062 5.17188
L45.4062 9.625
Q42.625 4.78125 38.2812 2.39062
Q33.9375 0 27.875 0
Q17.8281 0 11.6719 7.65625
Q5.51562 15.3281 5.51562 27.9844
Q5.51562 40.6719 11.6719 48.3281
Q17.8281 56 27.875 56
Q33.9375 56 38.2812 53.6094
Q42.625 51.2188 45.4062 46.3906
L45.4062 54.6875
L54.3906 54.6875
z
" id="BitstreamVeraSans-Roman-67"/>
     <path d="
M44.2812 53.0781
L44.2812 44.5781
Q40.4844 46.5312 36.375 47.5
Q32.2812 48.4844 27.875 48.4844
Q21.1875 48.4844 17.8438 46.4375
Q14.5 44.3906 14.5 40.2812
Q14.5 37.1562 16.8906 35.375
Q19.2812 33.5938 26.5156 31.9844
L29.5938 31.2969
Q39.1562 29.25 43.1875 25.5156
Q47.2188 21.7812 47.2188 15.0938
Q47.2188 7.46875 41.1875 3.01562
Q35.1562 -1.42188 24.6094 -1.42188
Q20.2188 -1.42188 15.4531 -0.5625
Q10.6875 0.296875 5.42188 2
L5.42188 11.2812
Q10.4062 8.6875 15.2344 7.39062
Q20.0625 6.10938 24.8125 6.10938
Q31.1562 6.10938 34.5625 8.28125
Q37.9844 10.4531 37.9844 14.4062
Q37.9844 18.0625 35.5156 20.0156
Q33.0625 21.9688 24.7031 23.7812
L21.5781 24.5156
Q13.2344 26.2656 9.51562 29.9062
Q5.8125 33.5469 5.8125 39.8906
Q5.8125 47.6094 11.2812 51.7969
Q16.75 56 26.8125 56
Q31.7812 56 36.1719 55.2656
Q40.5781 54.5469 44.2812 53.0781" id="BitstreamVeraSans-Roman-73"/>
    </defs>
    <g transform="translate(175.27117669 187.379476944)scale(0.12 -0.12)">
     <use xlink:href="#BitstreamVeraSans-Roman-36"/>
     <use x="63.623046875" xlink:href="#BitstreamVeraSans-Roman-32"/>
     <use x="127.24609375" xlink:href="#BitstreamVeraSans-Roman-2e"/>
     <use x="159.033203125" xlink:href="#BitstreamVeraSans-Roman-34"/>
     <use x="222.65625" xlink:href="#BitstreamVeraSans-Roman-20"/>
     <use x="254.443359375" xlink:href="#BitstreamVeraSans-Roman-6b"/>
     <use x="312.353515625" xlink:href="#BitstreamVeraSans-Roman-67"/>
     <use x="375.830078125" xlink:href="#BitstreamVeraSans-Roman-2f"/>
     <use x="409.521484375" xlink:href="#BitstreamVeraSans-Roman-73"/>
    </g>
   </g>
   <g id="text_2">
    <!-- Tank 2 -->
    <g transform="translate(219.294426304 88.8581505969)scale(0.12 -0.12)">
     <use xlink:href="#BitstreamVeraSans-Roman-54"/>
     <use x="44.583984375" xlink:href="#BitstreamVeraSans-Roman-61"/>
     <use x="105.86328125" xlink:href="#BitstreamVeraSans-Roman-6e"/>
     <use x="169.2421875" xlink:href="#BitstreamVeraSans-Roman-6b"/>
     <use x="227.15234375" xlink:href="#BitstreamVeraSans-Roman-20"/>
     <use x="258.939453125" xlink:href="#BitstreamVeraSans-Roman-32"/>
    </g>
    <!-- 23.9 kg/s -->
    <defs>
     <path d="
M40.5781 39.3125
Q47.6562 37.7969 51.625 33
Q55.6094 28.2188 55.6094 21.1875
Q55.6094 10.4062 48.1875 4.48438
Q40.7656 -1.42188 27.0938 -1.42188
Q22.5156 -1.42188 17.6562 -0.515625
Q12.7969 0.390625 7.625 2.20312
L7.625 11.7188
Q11.7188 9.32812 16.5938 8.10938
Q21.4844 6.89062 26.8125 6.89062
Q36.0781 6.89062 40.9375 10.5469
Q45.7969 14.2031 45.7969 21.1875
Q45.7969 27.6406 41.2812 31.2656
Q36.7656 34.9062 28.7188 34.9062
L20.2188 34.9062
L20.2188 43.0156
L29.1094 43.0156
Q36.375 43.0156 40.2344 45.9219
Q44.0938 48.8281 44.0938 54.2969
Q44.0938 59.9062 40.1094 62.9062
Q36.1406 65.9219 28.7188 65.9219
Q24.6562 65.9219 20.0156 65.0312
Q15.375 64.1562 9.8125 62.3125
L9.8125 71.0938
Q15.4375 72.6562 20.3438 73.4375
Q25.25 74.2188 29.5938 74.2188
Q40.8281 74.2188 47.3594 69.1094
Q53.9062 64.0156 53.9062 55.3281
Q53.9062 49.2656 50.4375 45.0938
Q46.9688 40.9219 40.5781 39.3125" id="BitstreamVeraSans-Roman-33"/>
     <path d="
M10.9844 1.51562
L10.9844 10.5
Q14.7031 8.73438 18.5 7.8125
Q22.3125 6.89062 25.9844 6.89062
Q35.75 6.89062 40.8906 13.4531
Q46.0469 20.0156 46.7812 33.4062
Q43.9531 29.2031 39.5938 26.9531
Q35.25 24.7031 29.9844 24.7031
Q19.0469 24.7031 12.6719 31.3125
Q6.29688 37.9375 6.29688 49.4219
Q6.29688 60.6406 12.9375 67.4219
Q19.5781 74.2188 30.6094 74.2188
Q43.2656 74.2188 49.9219 64.5156
Q56.5938 54.8281 56.5938 36.375
Q56.5938 19.1406 48.4062 8.85938
Q40.2344 -1.42188 26.4219 -1.42188
Q22.7031 -1.42188 18.8906 -0.6875
Q15.0938 0.046875 10.9844 1.51562
M30.6094 32.4219
Q37.25 32.4219 41.125 36.9531
Q45.0156 41.5 45.0156 49.4219
Q45.0156 57.2812 41.125 61.8438
Q37.25 66.4062 30.6094 66.4062
Q23.9688 66.4062 20.0938 61.8438
Q16.2188 57.2812 16.2188 49.4219
Q16.2188 41.5 20.0938 36.9531
Q23.9688 32.4219 30.6094 32.4219" id="BitstreamVeraSans-Roman-39"/>
    </defs>
    <g transform="translate(210.660051304 102.295525597)scale(0.12 -0.12)">
     <use xlink:href="#BitstreamVeraSans-Roman-32"/>
     <use x="63.623046875" xlink:href="#BitstreamVeraSans-Roman-33"/>
     <use x="127.24609375" xlink:href="#BitstreamVeraSans-Roman-2e"/>
     <use x="159.033203125" xlink:href="#BitstreamVeraSans-Roman-39"/>
     <use x="222.65625" xlink:href="#BitstreamVeraSans-Roman-20"/>
     <use x="254.443359375" xlink:href="#BitstreamVeraSans-Roman-6b"/>
     <use x="312.353515625" xlink:href="#BitstreamVeraSans-Roman-67"/>
     <use x="375.830078125" xlink:href="#BitstreamVeraSans-Roman-2f"/>
     <use x="409.521484375" xlink:href="#BitstreamVeraSans-Roman-73"/>
    </g>
   </g>
   <g id="text_3">
    <!-- Tank 3 -->
    <g transform="translate(74.5404347436 82.1315807169)scale(0.12 -0.12)">
     <use xlink:href="#BitstreamVeraSans-Roman-54"/>
     <use x="44.583984375" xlink:href="#BitstreamVeraSans-Roman-61"/>
     <use x="105.86328125" xlink:href="#BitstreamVeraSans-Roman-6e"/>
     <use x="169.2421875" xlink:href="#BitstreamVeraSans-Roman-6b"/>
     <use x="227.15234375" xlink:href="#BitstreamVeraSans-Roman-20"/>
     <use x="258.939453125" xlink:href="#BitstreamVeraSans-Roman-33"/>
    </g>
    <!-- 86.3 kg/s -->
    <defs>
     <path d="
M31.7812 34.625
Q24.75 34.625 20.7188 30.8594
Q16.7031 27.0938 16.7031 20.5156
Q16.7031 13.9219 20.7188 10.1562
Q24.75 6.39062 31.7812 6.39062
Q38.8125 6.39062 42.8594 10.1719
Q46.9219 13.9688 46.9219 20.5156
Q46.9219 27.0938 42.8906 30.8594
Q38.875 34.625 31.7812 34.625
M21.9219 38.8125
Q15.5781 40.375 12.0312 44.7188
Q8.5 49.0781 8.5 55.3281
Q8.5 64.0625 14.7188 69.1406
Q20.9531 74.2188 31.7812 74.2188
Q42.6719 74.2188 48.875 69.1406
Q55.0781 64.0625 55.0781 55.3281
Q55.0781 49.0781 51.5312 44.7188
Q48 40.375 41.7031 38.8125
Q48.8281 37.1562 52.7969 32.3125
Q56.7812 27.4844 56.7812 20.5156
Q56.7812 9.90625 50.3125 4.23438
Q43.8438 -1.42188 31.7812 -1.42188
Q19.7344 -1.42188 13.25 4.23438
Q6.78125 9.90625 6.78125 20.5156
Q6.78125 27.4844 10.7812 32.3125
Q14.7969 37.1562 21.9219 38.8125
M18.3125 54.3906
Q18.3125 48.7344 21.8438 45.5625
Q25.3906 42.3906 31.7812 42.3906
Q38.1406 42.3906 41.7188 45.5625
Q45.3125 48.7344 45.3125 54.3906
Q45.3125 60.0625 41.7188 63.2344
Q38.1406 66.4062 31.7812 66.4062
Q25.3906 66.4062 21.8438 63.2344
Q18.3125 60.0625 18.3125 54.3906" id="BitstreamVeraSans-Roman-38"/>
    </defs>
    <g transform="translate(66.0260597436 95.5689557169)scale(0.12 -0.12)">
     <use xlink:href="#BitstreamVeraSans-Roman-38"/>
     <use x="63.623046875" xlink:href="#BitstreamVeraSans-Roman-36"/>
     <use x="127.24609375" xlink:href="#BitstreamVeraSans-Roman-2e"/>
     <use x="159.033203125" xlink:href="#BitstreamVeraSans-Roman-33"/>
     <use x="222.65625" xlink:href="#BitstreamVeraSans-Roman-20"/>
     <use x="254.443359375" xlink:href="#BitstreamVeraSans-Roman-6b"/>
     <use x="312.353515625" xlink:href="#BitstreamVeraSans-Roman-67"/>
     <use x="375.830078125" xlink:href="#BitstreamVeraSans-Roman-2f"/>
     <use x="409.521484375" xlink:href="#BitstreamVeraSans-Roman-73"/>
    </g>
   </g>
   <g id="text_4">
    <!-- t = 0 s (initial) -->
    <defs>
     <path d="
M31.7812 66.4062
Q24.1719 66.4062 20.3281 58.9062
Q16.5 51.4219 16.5 36.375
Q16.5 21.3906 20.3281 13.8906
Q24.1719 6.39062 31.7812 6.39062
Q39.4531 6.39062 43.2812 13.8906
Q47.125 21.3906 47.125 36.375
Q47.125 51.4219 43.2812 58.9062
Q39.4531 66.4062 31.7812 66.4062
M31.7812 74.2188
Q44.0469 74.2188 50.5156 64.5156
Q56.9844 54.8281 56.9844 36.375
Q56.9844 17.9688 50.5156 8.26562
Q44.0469 -1.42188 31.7812 -1.42188
Q19.5312 -1.42188 13.0625 8.26562
Q6.59375 17.9688 6.59375 36.375
Q6.59375 54.8281 13.0625 64.5156
Q19.5312 74.2188 31.7812 74.2188" id="BitstreamVeraSans-Roman-30"/>
     <path d="
M8.01562 75.875
L15.8281 75.875
Q23.1406 64.3594 26.7812 53.3125
Q30.4219 42.2812 30.4219 31.3906
Q30.4219 20.4531 26.7812 9.375
Q23.1406 -1.70312 15.8281 -13.1875
L8.01562 -13.1875
Q14.5 -2 17.7031 9.0625
Q20.9062 20.125 20.9062 31.3906
Q20.9062 42.6719 17.7031 53.6562
Q14.5 64.6562 8.01562 75.875" id="BitstreamVeraSans-Roman-29"/>
     <path d="
M31 75.875
Q24.4688 64.6562 21.2812 53.6562
Q18.1094 42.6719 18.1094 31.3906
Q18.1094 20.125 21.3125 9.0625
Q24.5156 -2 31 -13.1875
L23.1875 -13.1875
Q15.875 -1.70312 12.2344 9.375
Q8.59375 20.4531 8.59375 31.3906
Q8.59375 42.2812 12.2031 53.3125
Q15.8281 64.3594 23.1875 75.875
z
" id="BitstreamVeraSans-Roman-28"/>
     <path d="
M9.42188 75.9844
L18.4062 75.9844
L18.4062 0
L9.42188 0
z
" id="BitstreamVeraSans-Roman-6c"/>
     <path d="
M9.42188 54.6875
L18.4062 54.6875
L18.4062 0
L9.42188 0
z

M9.42188 75.9844
L18.4062 75.9844
L18.4062 64.5938
L9.42188 64.5938
z
" id="BitstreamVeraSans-Roman-69"/>
     <path d="
M10.5938 45.4062
L73.1875 45.4062
L73.1875 37.2031
L10.5938 37.2031
z

M10.5938 25.4844
L73.1875 25.4844
L73.1875 17.1875
L10.5938 17.1875
z
" id="BitstreamVeraSans-Roman-3d"/>
     <path d="
M18.3125 70.2188
L18.3125 54.6875
L36.8125 54.6875
L36.8125 47.7031
L18.3125 47.7031
L18.3125 18.0156
Q18.3125 11.3281 20.1406 9.42188
Q21.9688 7.51562 27.5938 7.51562
L36.8125 7.51562
L36.8125 0
L27.5938 0
Q17.1875 0 13.2344 3.875
Q9.28125 7.76562 9.28125 18.0156
L9.28125 47.7031
L2.6875 47.7031
L2.6875 54.6875
L9.28125 54.6875
L9.28125 70.2188
z
" id="BitstreamVeraSans-Roman-74"/>
    </defs>
    <g transform="translate(109.612633929 38.2)scale(0.12 -0.12)">
     <use xlink:href="#BitstreamVeraSans-Roman-74"/>
     <use x="39.208984375" xlink:href="#BitstreamVeraSans-Roman-20"/>
     <use x="70.99609375" xlink:href="#BitstreamVeraSans-Roman-3d"/>
     <use x="154.78515625" xlink:href="#BitstreamVeraSans-Roman-20"/>
     <use x="186.572265625" xlink:href="#BitstreamVeraSans-Roman-30"/>
     <use x="250.1953125" xlink:href="#BitstreamVeraSans-Roman-20"/>
     <use x="281.982421875" xlink:href="#BitstreamVeraSans-Roman-73"/>
     <use x="334.08203125" xlink:href="#BitstreamVeraSans-Roman-20"/>
     <use x="365.869140625" xlink:href="#BitstreamVeraSans-Roman-28"/>
     <use x="404.8828125" xlink:href="#BitstreamVeraSans-Roman-69"/>
     <use x="432.666015625" xlink:href="#BitstreamVeraSans-Roman-6e"/>
     <use x="496.044921875" xlink:href="#BitstreamVeraSans-Roman-69"/>
     <use x="523.828125" xlink:href="#BitstreamVeraSans-Roman-74"/>
     <use x="563.037109375" xlink:href="#BitstreamVeraSans-Roman-69"/>
     <use x="590.8203125" xlink:href="#BitstreamVeraSans-Roman-61"/>
     <use x="652.099609375" xlink:href="#BitstreamVeraSans-Roman-6c"/>
     <use x="679.8828125" xlink:href="#BitstreamVeraSans-Roman-29"/>
    </g>
   </g>
  </g>
  <g id="axes_2">
   <g id="patch_8">
    <path d="
M300.343 206.4
L547.2 206.4
L547.2 43.2
L300.343 43.2
z
" style="fill:#ffffff;"/>
   </g>
   <g id="patch_9">
    <path clip-path="url(#p75e9c09b84)" d="
M381.596 96.1108
L401.424 96.1108
C416.294 96.1108 426.208 96.1108 441.078 96.1108
L462.158 96.1108
C471.358 96.1108 480.19 99.7694 486.696 106.275
C493.201 112.78 496.86 121.613 496.86 130.813
L496.86 146.675
L497.11 146.675
L479.926 161.094
L462.742 146.675
L462.992 146.675
L462.992 130.813
C462.992 130.592 462.904 130.379 462.748 130.223
C462.591 130.066 462.379 129.978 462.158 129.978
L460.905 129.978
L460.905 129.978
L441.078 129.978
C426.208 129.978 416.294 129.978 401.424 129.978
L381.596 129.978
L357.838 129.978
L357.838 129.978
L362.955 123.88
L357.838 117.782
L359.925 117.782
L357.838 117.782
L380.344 117.782
C374.377 117.782 368.649 115.409 364.43 111.19
C360.211 106.971 357.838 101.243 357.838 95.2759
L357.838 79.4141
L368.674 88.5062
L379.509 79.4141
L379.509 95.2759
C379.509 95.4973 379.597 95.7097 379.754 95.8662
C379.91 96.0227 380.123 96.1108 380.344 96.1108
L381.596 96.1108
z
" style="fill:#bfd1d4;stroke:#000000;stroke-width:0.5;"/>
   </g>
   <g id="patch_10">
    <path d="
M300.343 43.2
L547.2 43.2" style="fill:none;stroke:#000000;"/>
   </g>
   <g id="patch_11">
    <path d="
M547.2 206.4
L547.2 43.2" style="fill:none;stroke:#000000;"/>
   </g>
   <g id="patch_12">
    <path d="
M300.343 206.4
L547.2 206.4" style="fill:none;stroke:#000000;"/>
   </g>
   <g id="patch_13">
    <path d="
M300.343 206.4
L300.343 43.2" style="fill:none;stroke:#000000;"/>
   </g>
   <g id="text_5">
    <!-- Tank 1 -->
    <g transform="translate(461.109436264 170.208885907)scale(0.12 -0.12)">
     <use xlink:href="#BitstreamVeraSans-Roman-54"/>
     <use x="44.583984375" xlink:href="#BitstreamVeraSans-Roman-61"/>
     <use x="105.86328125" xlink:href="#BitstreamVeraSans-Roman-6e"/>
     <use x="169.2421875" xlink:href="#BitstreamVeraSans-Roman-6b"/>
     <use x="227.15234375" xlink:href="#BitstreamVeraSans-Roman-20"/>
     <use x="258.939453125" xlink:href="#BitstreamVeraSans-Roman-31"/>
    </g>
    <!-- 40.6 kg/s -->
    <g transform="translate(452.521936264 183.646260907)scale(0.12 -0.12)">
     <use xlink:href="#BitstreamVeraSans-Roman-34"/>
     <use x="63.623046875" xlink:href="#BitstreamVeraSans-Roman-30"/>
     <use x="127.24609375" xlink:href="#BitstreamVeraSans-Roman-2e"/>
     <use x="159.033203125" xlink:href="#BitstreamVeraSans-Roman-36"/>
     <use x="222.65625" xlink:href="#BitstreamVeraSans-Roman-20"/>
     <use x="254.443359375" xlink:href="#BitstreamVeraSans-Roman-6b"/>
     <use x="312.353515625" xlink:href="#BitstreamVeraSans-Roman-67"/>
     <use x="375.830078125" xlink:href="#BitstreamVeraSans-Roman-2f"/>
     <use x="409.521484375" xlink:href="#BitstreamVeraSans-Roman-73"/>
    </g>
   </g>
   <g id="text_6">
    <!-- Tank 2 -->
    <g transform="translate(331.663080846 120.472422417)scale(0.12 -0.12)">
     <use xlink:href="#BitstreamVeraSans-Roman-54"/>
     <use x="44.583984375" xlink:href="#BitstreamVeraSans-Roman-61"/>
     <use x="105.86328125" xlink:href="#BitstreamVeraSans-Roman-6e"/>
     <use x="169.2421875" xlink:href="#BitstreamVeraSans-Roman-6b"/>
     <use x="227.15234375" xlink:href="#BitstreamVeraSans-Roman-20"/>
     <use x="258.939453125" xlink:href="#BitstreamVeraSans-Roman-32"/>
    </g>
    <!-- 14.6 kg/s -->
    <g transform="translate(323.028705846 133.909797417)scale(0.12 -0.12)">
     <use xlink:href="#BitstreamVeraSans-Roman-31"/>
     <use x="63.623046875" xlink:href="#BitstreamVeraSans-Roman-34"/>
     <use x="127.24609375" xlink:href="#BitstreamVeraSans-Roman-2e"/>
     <use x="159.033203125" xlink:href="#BitstreamVeraSans-Roman-36"/>
     <use x="222.65625" xlink:href="#BitstreamVeraSans-Roman-20"/>
     <use x="254.443359375" xlink:href="#BitstreamVeraSans-Roman-6b"/>
     <use x="312.353515625" xlink:href="#BitstreamVeraSans-Roman-67"/>
     <use x="375.830078125" xlink:href="#BitstreamVeraSans-Roman-2f"/>
     <use x="409.521484375" xlink:href="#BitstreamVeraSans-Roman-73"/>
    </g>
   </g>
   <g id="text_7">
    <!-- Tank 3 -->
    <g transform="translate(349.784029986 72.5762390926)scale(0.12 -0.12)">
     <use xlink:href="#BitstreamVeraSans-Roman-54"/>
     <use x="44.583984375" xlink:href="#BitstreamVeraSans-Roman-61"/>
     <use x="105.86328125" xlink:href="#BitstreamVeraSans-Roman-6e"/>
     <use x="169.2421875" xlink:href="#BitstreamVeraSans-Roman-6b"/>
     <use x="227.15234375" xlink:href="#BitstreamVeraSans-Roman-20"/>
     <use x="258.939453125" xlink:href="#BitstreamVeraSans-Roman-33"/>
    </g>
    <!-- 26.0 kg/s -->
    <g transform="translate(341.269654986 86.0136140926)scale(0.12 -0.12)">
     <use xlink:href="#BitstreamVeraSans-Roman-32"/>
     <use x="63.623046875" xlink:href="#BitstreamVeraSans-Roman-36"/>
     <use x="127.24609375" xlink:href="#BitstreamVeraSans-Roman-2e"/>
     <use x="159.033203125" xlink:href="#BitstreamVeraSans-Roman-30"/>
     <use x="222.65625" xlink:href="#BitstreamVeraSans-Roman-20"/>
     <use x="254.443359375" xlink:href="#BitstreamVeraSans-Roman-6b"/>
     <use x="312.353515625" xlink:href="#BitstreamVeraSans-Roman-67"/>
     <use x="375.830078125" xlink:href="#BitstreamVeraSans-Roman-2f"/>
     <use x="409.521484375" xlink:href="#BitstreamVeraSans-Roman-73"/>
    </g>
   </g>
   <g id="text_8">
    <!-- t = 50 s -->
    <defs>
     <path d="
M10.7969 72.9062
L49.5156 72.9062
L49.5156 64.5938
L19.8281 64.5938
L19.8281 46.7344
Q21.9688 47.4688 24.1094 47.8281
Q26.2656 48.1875 28.4219 48.1875
Q40.625 48.1875 47.75 41.5
Q54.8906 34.8125 54.8906 23.3906
Q54.8906 11.625 47.5625 5.09375
Q40.2344 -1.42188 26.9062 -1.42188
Q22.3125 -1.42188 17.5469 -0.640625
Q12.7969 0.140625 7.71875 1.70312
L7.71875 11.625
Q12.1094 9.23438 16.7969 8.0625
Q21.4844 6.89062 26.7031 6.89062
Q35.1562 6.89062 40.0781 11.3281
Q45.0156 15.7656 45.0156 23.3906
Q45.0156 31 40.0781 35.4375
Q35.1562 39.8906 26.7031 39.8906
Q22.75 39.8906 18.8125 39.0156
Q14.8906 38.1406 10.7969 36.2812
z
" id="BitstreamVeraSans-Roman-35"/>
    </defs>
    <g transform="translate(400.202678571 38.2)scale(0.12 -0.12)">
     <use xlink:href="#BitstreamVeraSans-Roman-74"/>
     <use x="39.208984375" xlink:href="#BitstreamVeraSans-Roman-20"/>
     <use x="70.99609375" xlink:href="#BitstreamVeraSans-Roman-3d"/>
     <use x="154.78515625" xlink:href="#BitstreamVeraSans-Roman-20"/>
     <use x="186.572265625" xlink:href="#BitstreamVeraSans-Roman-35"/>
     <use x="250.1953125" xlink:href="#BitstreamVeraSans-Roman-30"/>
     <use x="313.818359375" xlink:href="#BitstreamVeraSans-Roman-20"/>
     <use x="345.60546875" xlink:href="#BitstreamVeraSans-Roman-73"/>
    </g>
   </g>
  </g>
  <g id="axes_3">
   <g id="patch_14">
    <path d="
M28.8 410.4
L275.657 410.4
L275.657 247.2
L28.8 247.2
z
" style="fill:#ffffff;"/>
   </g>
   <g id="patch_15">
    <path clip-path="url(#p3b5883a4a3)" d="
M107.944 315.437
L130.74 315.437
C147.838 315.437 159.236 315.437 176.334 315.437
L200.57 315.437
C205.132 315.437 209.512 317.251 212.738 320.477
C215.963 323.703 217.778 328.083 217.778 332.645
L217.778 350.882
L218.065 350.882
L209.654 357.94
L201.242 350.882
L201.53 350.882
L201.53 332.645
C201.53 332.39 201.429 332.146 201.249 331.966
C201.069 331.786 200.825 331.685 200.57 331.685
L199.13 331.685
L199.13 331.685
L176.334 331.685
C159.236 331.685 147.838 331.685 130.74 331.685
L107.944 331.685
L97.3927 331.685
L97.3927 331.685
L100.79 327.637
L97.3927 323.588
L99.7924 323.588
L97.3927 323.588
L106.504 323.588
C104.088 323.588 101.769 322.628 100.061 320.92
C98.3533 319.212 97.3927 316.893 97.3927 314.477
L97.3927 296.24
L101.468 299.66
L105.544 296.24
L105.544 314.477
C105.544 314.732 105.645 314.976 105.825 315.156
C106.005 315.336 106.249 315.437 106.504 315.437
L107.944 315.437
z
" style="fill:#bfd1d4;stroke:#000000;stroke-width:0.5;"/>
   </g>
   <g id="patch_16">
    <path d="
M28.8 247.2
L275.657 247.2" style="fill:none;stroke:#000000;"/>
   </g>
   <g id="patch_17">
    <path d="
M275.657 410.4
L275.657 247.2" style="fill:none;stroke:#000000;"/>
   </g>
   <g id="patch_18">
    <path d="
M28.8 410.4
L275.657 410.4" style="fill:none;stroke:#000000;"/>
   </g>
   <g id="patch_19">
    <path d="
M28.8 410.4
L28.8 247.2" style="fill:none;stroke:#000000;"/>
   </g>
   <g id="text_9">
    <!-- Tank 1 -->
    <g transform="translate(190.837178904 368.930721308)scale(0.12 -0.12)">
     <use xlink:href="#BitstreamVeraSans-Roman-54"/>
     <use x="44.583984375" xlink:href="#BitstreamVeraSans-Roman-61"/>
     <use x="105.86328125" xlink:href="#BitstreamVeraSans-Roman-6e"/>
     <use x="169.2421875" xlink:href="#BitstreamVeraSans-Roman-6b"/>
     <use x="227.15234375" xlink:href="#BitstreamVeraSans-Roman-20"/>
     <use x="258.939453125" xlink:href="#BitstreamVeraSans-Roman-31"/>
    </g>
    <!-- 16.9 kg/s -->
    <g transform="translate(182.249678904 382.368096308)scale(0.12 -0.12)">
     <use xlink:href="#BitstreamVeraSans-Roman-31"/>
     <use x="63.623046875" xlink:href="#BitstreamVeraSans-Roman-36"/>
     <use x="127.24609375" xlink:href="#BitstreamVeraSans-Roman-2e"/>
     <use x="159.033203125" xlink:href="#BitstreamVeraSans-Roman-39"/>
     <use x="222.65625" xlink:href="#BitstreamVeraSans-Roman-20"/>
     <use x="254.443359375" xlink:href="#BitstreamVeraSans-Roman-6b"/>
     <use x="312.353515625" xlink:href="#BitstreamVeraSans-Roman-67"/>
     <use x="375.830078125" xlink:href="#BitstreamVeraSans-Roman-2f"/>
     <use x="409.521484375" xlink:href="#BitstreamVeraSans-Roman-73"/>
    </g>
   </g>
   <g id="text_10">
    <!-- Tank 2 -->
    <g transform="translate(67.6219721149 324.229083117)scale(0.12 -0.12)">
     <use xlink:href="#BitstreamVeraSans-Roman-54"/>
     <use x="44.583984375" xlink:href="#BitstreamVeraSans-Roman-61"/>
     <use x="105.86328125" xlink:href="#BitstreamVeraSans-Roman-6e"/>
     <use x="169.2421875" xlink:href="#BitstreamVeraSans-Roman-6b"/>
     <use x="227.15234375" xlink:href="#BitstreamVeraSans-Roman-20"/>
     <use x="258.939453125" xlink:href="#BitstreamVeraSans-Roman-32"/>
    </g>
    <!-- 8.4 kg/s -->
    <g transform="translate(62.8050971149 337.666458117)scale(0.12 -0.12)">
     <use xlink:href="#BitstreamVeraSans-Roman-38"/>
     <use x="63.623046875" xlink:href="#BitstreamVeraSans-Roman-2e"/>
     <use x="95.41015625" xlink:href="#BitstreamVeraSans-Roman-34"/>
     <use x="159.033203125" xlink:href="#BitstreamVeraSans-Roman-20"/>
     <use x="190.8203125" xlink:href="#BitstreamVeraSans-Roman-6b"/>
     <use x="248.73046875" xlink:href="#BitstreamVeraSans-Roman-67"/>
     <use x="312.20703125" xlink:href="#BitstreamVeraSans-Roman-2f"/>
     <use x="345.8984375" xlink:href="#BitstreamVeraSans-Roman-73"/>
    </g>
   </g>
   <g id="text_11">
    <!-- Tank 3 -->
    <g transform="translate(82.5786014074 281.854403692)scale(0.12 -0.12)">
     <use xlink:href="#BitstreamVeraSans-Roman-54"/>
     <use x="44.583984375" xlink:href="#BitstreamVeraSans-Roman-61"/>
     <use x="105.86328125" xlink:href="#BitstreamVeraSans-Roman-6e"/>
     <use x="169.2421875" xlink:href="#BitstreamVeraSans-Roman-6b"/>
     <use x="227.15234375" xlink:href="#BitstreamVeraSans-Roman-20"/>
     <use x="258.939453125" xlink:href="#BitstreamVeraSans-Roman-33"/>
    </g>
    <!-- 8.5 kg/s -->
    <g transform="translate(77.8817264074 295.291778692)scale(0.12 -0.12)">
     <use xlink:href="#BitstreamVeraSans-Roman-38"/>
     <use x="63.623046875" xlink:href="#BitstreamVeraSans-Roman-2e"/>
     <use x="95.41015625" xlink:href="#BitstreamVeraSans-Roman-35"/>
     <use x="159.033203125" xlink:href="#BitstreamVeraSans-Roman-20"/>
     <use x="190.8203125" xlink:href="#BitstreamVeraSans-Roman-6b"/>
     <use x="248.73046875" xlink:href="#BitstreamVeraSans-Roman-67"/>
     <use x="312.20703125" xlink:href="#BitstreamVeraSans-Roman-2f"/>
     <use x="345.8984375" xlink:href="#BitstreamVeraSans-Roman-73"/>
    </g>
   </g>
   <g id="text_12">
    <!-- t = 100 s -->
    <g transform="translate(124.842321429 242.2)scale(0.12 -0.12)">
     <use xlink:href="#BitstreamVeraSans-Roman-74"/>
     <use x="39.208984375" xlink:href="#BitstreamVeraSans-Roman-20"/>
     <use x="70.99609375" xlink:href="#BitstreamVeraSans-Roman-3d"/>
     <use x="154.78515625" xlink:href="#BitstreamVeraSans-Roman-20"/>
     <use x="186.572265625" xlink:href="#BitstreamVeraSans-Roman-31"/>
     <use x="250.1953125" xlink:href="#BitstreamVeraSans-Roman-30"/>
     <use x="313.818359375" xlink:href="#BitstreamVeraSans-Roman-30"/>
     <use x="377.44140625" xlink:href="#BitstreamVeraSans-Roman-20"/>
     <use x="409.228515625" xlink:href="#BitstreamVeraSans-Roman-73"/>
    </g>
   </g>
  </g>
  <g id="axes_4">
   <g id="patch_20">
    <path d="
M300.343 410.4
L547.2 410.4
L547.2 247.2
L300.343 247.2
z
" style="fill:#ffffff;"/>
   </g>
   <g id="patch_21">
    <path clip-path="url(#p658caa8d24)" d="
M381.637 328.906
L406.533 328.906
C425.205 328.906 437.653 328.906 456.325 328.906
L481.221 328.906
L482.794 328.906
C483.071 328.906 483.338 328.796 483.535 328.599
C483.731 328.403 483.842 328.136 483.842 327.858
L483.842 307.941
L483.527 307.941
L483.916 307.615
L484.305 307.941
L483.99 307.941
L483.99 327.858
C483.99 328.175 483.864 328.48 483.64 328.704
C483.415 328.928 483.111 329.054 482.794 329.054
L481.221 329.054
L456.325 329.054
C437.653 329.054 425.205 329.054 406.533 329.054
L381.637 329.054
L380.064 329.054
C379.787 329.054 379.52 329.165 379.323 329.361
C379.127 329.558 379.016 329.825 379.016 330.103
L379.016 350.02
L378.975 349.985
L378.934 350.02
L378.934 330.103
C378.934 329.803 379.053 329.515 379.265 329.303
C379.477 329.092 379.765 328.972 380.064 328.972
L378.934 328.972
L378.934 328.972
L378.962 328.939
L378.934 328.906
L381.555 328.906
L381.637 328.906
z
" style="fill:#bfd1d4;stroke:#000000;stroke-width:0.5;"/>
   </g>
   <g id="patch_22">
    <path d="
M300.343 247.2
L547.2 247.2" style="fill:none;stroke:#000000;"/>
   </g>
   <g id="patch_23">
    <path d="
M547.2 410.4
L547.2 247.2" style="fill:none;stroke:#000000;"/>
   </g>
   <g id="patch_24">
    <path d="
M300.343 410.4
L547.2 410.4" style="fill:none;stroke:#000000;"/>
   </g>
   <g id="patch_25">
    <path d="
M300.343 410.4
L300.343 247.2" style="fill:none;stroke:#000000;"/>
   </g>
   <g id="text_13">
    <!-- Tank 1 -->
    <g transform="translate(360.158643397 362.3015641)scale(0.12 -0.12)">
     <use xlink:href="#BitstreamVeraSans-Roman-54"/>
     <use x="44.583984375" xlink:href="#BitstreamVeraSans-Roman-61"/>
     <use x="105.86328125" xlink:href="#BitstreamVeraSans-Roman-6e"/>
     <use x="169.2421875" xlink:href="#BitstreamVeraSans-Roman-6b"/>
     <use x="227.15234375" xlink:href="#BitstreamVeraSans-Roman-20"/>
     <use x="258.939453125" xlink:href="#BitstreamVeraSans-Roman-31"/>
    </g>
    <!-- 0.1 kg/s -->
    <g transform="translate(355.388643397 375.7389391)scale(0.12 -0.12)">
     <use xlink:href="#BitstreamVeraSans-Roman-30"/>
     <use x="63.623046875" xlink:href="#BitstreamVeraSans-Roman-2e"/>
     <use x="95.41015625" xlink:href="#BitstreamVeraSans-Roman-31"/>
     <use x="159.033203125" xlink:href="#BitstreamVeraSans-Roman-20"/>
     <use x="190.8203125" xlink:href="#BitstreamVeraSans-Roman-6b"/>
     <use x="248.73046875" xlink:href="#BitstreamVeraSans-Roman-67"/>
     <use x="312.20703125" xlink:href="#BitstreamVeraSans-Roman-2f"/>
     <use x="345.8984375" xlink:href="#BitstreamVeraSans-Roman-73"/>
    </g>
   </g>
   <g id="text_14">
    <!-- Tank 2 -->
    <g transform="translate(344.468540457 325.531831176)scale(0.12 -0.12)">
     <use xlink:href="#BitstreamVeraSans-Roman-54"/>
     <use x="44.583984375" xlink:href="#BitstreamVeraSans-Roman-61"/>
     <use x="105.86328125" xlink:href="#BitstreamVeraSans-Roman-6e"/>
     <use x="169.2421875" xlink:href="#BitstreamVeraSans-Roman-6b"/>
     <use x="227.15234375" xlink:href="#BitstreamVeraSans-Roman-20"/>
     <use x="258.939453125" xlink:href="#BitstreamVeraSans-Roman-32"/>
    </g>
    <!-- 0.1 kg/s -->
    <g transform="translate(339.651665457 338.969206176)scale(0.12 -0.12)">
     <use xlink:href="#BitstreamVeraSans-Roman-30"/>
     <use x="63.623046875" xlink:href="#BitstreamVeraSans-Roman-2e"/>
     <use x="95.41015625" xlink:href="#BitstreamVeraSans-Roman-31"/>
     <use x="159.033203125" xlink:href="#BitstreamVeraSans-Roman-20"/>
     <use x="190.8203125" xlink:href="#BitstreamVeraSans-Roman-6b"/>
     <use x="248.73046875" xlink:href="#BitstreamVeraSans-Roman-67"/>
     <use x="312.20703125" xlink:href="#BitstreamVeraSans-Roman-2f"/>
     <use x="345.8984375" xlink:href="#BitstreamVeraSans-Roman-73"/>
    </g>
   </g>
   <g id="text_15">
    <!-- Tank 3 -->
    <g transform="translate(465.026292501 288.4835609)scale(0.12 -0.12)">
     <use xlink:href="#BitstreamVeraSans-Roman-54"/>
     <use x="44.583984375" xlink:href="#BitstreamVeraSans-Roman-61"/>
     <use x="105.86328125" xlink:href="#BitstreamVeraSans-Roman-6e"/>
     <use x="169.2421875" xlink:href="#BitstreamVeraSans-Roman-6b"/>
     <use x="227.15234375" xlink:href="#BitstreamVeraSans-Roman-20"/>
     <use x="258.939453125" xlink:href="#BitstreamVeraSans-Roman-33"/>
    </g>
    <!-- 0.1 kg/s -->
    <g transform="translate(460.329417501 301.9209359)scale(0.12 -0.12)">
     <use xlink:href="#BitstreamVeraSans-Roman-30"/>
     <use x="63.623046875" xlink:href="#BitstreamVeraSans-Roman-2e"/>
     <use x="95.41015625" xlink:href="#BitstreamVeraSans-Roman-31"/>
     <use x="159.033203125" xlink:href="#BitstreamVeraSans-Roman-20"/>
     <use x="190.8203125" xlink:href="#BitstreamVeraSans-Roman-6b"/>
     <use x="248.73046875" xlink:href="#BitstreamVeraSans-Roman-67"/>
     <use x="312.20703125" xlink:href="#BitstreamVeraSans-Roman-2f"/>
     <use x="345.8984375" xlink:href="#BitstreamVeraSans-Roman-73"/>
    </g>
   </g>
   <g id="text_16">
    <!-- t = 150 s -->
    <g transform="translate(396.385178571 242.2)scale(0.12 -0.12)">
     <use xlink:href="#BitstreamVeraSans-Roman-74"/>
     <use x="39.208984375" xlink:href="#BitstreamVeraSans-Roman-20"/>
     <use x="70.99609375" xlink:href="#BitstreamVeraSans-Roman-3d"/>
     <use x="154.78515625" xlink:href="#BitstreamVeraSans-Roman-20"/>
     <use x="186.572265625" xlink:href="#BitstreamVeraSans-Roman-31"/>
     <use x="250.1953125" xlink:href="#BitstreamVeraSans-Roman-35"/>
     <use x="313.818359375" xlink:href="#BitstreamVeraSans-Roman-30"/>
     <use x="377.44140625" xlink:href="#BitstreamVeraSans-Roman-20"/>
     <use x="409.228515625" xlink:href="#BitstreamVeraSans-Roman-73"/>
    </g>
   </g>
  </g>
  <g id="text_17">
   <!-- Sankey Diagrams of Modelica.Fluid.Examples.Tanks.ThreeTanks -->
   <defs>
    <path d="
M9.8125 72.9062
L24.5156 72.9062
L43.1094 23.2969
L61.8125 72.9062
L76.5156 72.9062
L76.5156 0
L66.8906 0
L66.8906 64.0156
L48.0938 14.0156
L38.1875 14.0156
L19.3906 64.0156
L19.3906 0
L9.8125 0
z
" id="BitstreamVeraSans-Roman-4d"/>
    <path d="
M18.1094 8.20312
L18.1094 -20.7969
L9.07812 -20.7969
L9.07812 54.6875
L18.1094 54.6875
L18.1094 46.3906
Q20.9531 51.2656 25.2656 53.625
Q29.5938 56 35.5938 56
Q45.5625 56 51.7812 48.0938
Q58.0156 40.1875 58.0156 27.2969
Q58.0156 14.4062 51.7812 6.48438
Q45.5625 -1.42188 35.5938 -1.42188
Q29.5938 -1.42188 25.2656 0.953125
Q20.9531 3.32812 18.1094 8.20312
M48.6875 27.2969
Q48.6875 37.2031 44.6094 42.8438
Q40.5312 48.4844 33.4062 48.4844
Q26.2656 48.4844 22.1875 42.8438
Q18.1094 37.2031 18.1094 27.2969
Q18.1094 17.3906 22.1875 11.75
Q26.2656 6.10938 33.4062 6.10938
Q40.5312 6.10938 44.6094 11.75
Q48.6875 17.3906 48.6875 27.2969" id="BitstreamVeraSans-Roman-70"/>
    <path d="
M52 44.1875
Q55.375 50.25 60.0625 53.125
Q64.75 56 71.0938 56
Q79.6406 56 84.2812 50.0156
Q88.9219 44.0469 88.9219 33.0156
L88.9219 0
L79.8906 0
L79.8906 32.7188
Q79.8906 40.5781 77.0938 44.375
Q74.3125 48.1875 68.6094 48.1875
Q61.625 48.1875 57.5625 43.5469
Q53.5156 38.9219 53.5156 30.9062
L53.5156 0
L44.4844 0
L44.4844 32.7188
Q44.4844 40.625 41.7031 44.4062
Q38.9219 48.1875 33.1094 48.1875
Q26.2188 48.1875 22.1562 43.5312
Q18.1094 38.875 18.1094 30.9062
L18.1094 0
L9.07812 0
L9.07812 54.6875
L18.1094 54.6875
L18.1094 46.1875
Q21.1875 51.2188 25.4844 53.6094
Q29.7812 56 35.6875 56
Q41.6562 56 45.8281 52.9688
Q50 49.9531 52 44.1875" id="BitstreamVeraSans-Roman-6d"/>
    <path d="
M8.5 21.5781
L8.5 54.6875
L17.4844 54.6875
L17.4844 21.9219
Q17.4844 14.1562 20.5 10.2656
Q23.5312 6.39062 29.5938 6.39062
Q36.8594 6.39062 41.0781 11.0312
Q45.3125 15.6719 45.3125 23.6875
L45.3125 54.6875
L54.2969 54.6875
L54.2969 0
L45.3125 0
L45.3125 8.40625
Q42.0469 3.42188 37.7188 1
Q33.4062 -1.42188 27.6875 -1.42188
Q18.2656 -1.42188 13.375 4.4375
Q8.5 10.2969 8.5 21.5781" id="BitstreamVeraSans-Roman-75"/>
    <path d="
M30.6094 48.3906
Q23.3906 48.3906 19.1875 42.75
Q14.9844 37.1094 14.9844 27.2969
Q14.9844 17.4844 19.1562 11.8438
Q23.3438 6.20312 30.6094 6.20312
Q37.7969 6.20312 41.9844 11.8594
Q46.1875 17.5312 46.1875 27.2969
Q46.1875 37.0156 41.9844 42.7031
Q37.7969 48.3906 30.6094 48.3906
M30.6094 56
Q42.3281 56 49.0156 48.375
Q55.7188 40.7656 55.7188 27.2969
Q55.7188 13.875 49.0156 6.21875
Q42.3281 -1.42188 30.6094 -1.42188
Q18.8438 -1.42188 12.1719 6.21875
Q5.51562 13.875 5.51562 27.2969
Q5.51562 40.7656 12.1719 48.375
Q18.8438 56 30.6094 56" id="BitstreamVeraSans-Roman-6f"/>
    <path d="
M9.8125 72.9062
L51.7031 72.9062
L51.7031 64.5938
L19.6719 64.5938
L19.6719 43.1094
L48.5781 43.1094
L48.5781 34.8125
L19.6719 34.8125
L19.6719 0
L9.8125 0
z
" id="BitstreamVeraSans-Roman-46"/>
    <path d="
M9.8125 72.9062
L55.9062 72.9062
L55.9062 64.5938
L19.6719 64.5938
L19.6719 43.0156
L54.3906 43.0156
L54.3906 34.7188
L19.6719 34.7188
L19.6719 8.29688
L56.7812 8.29688
L56.7812 0
L9.8125 0
z
" id="BitstreamVeraSans-Roman-45"/>
    <path d="
M19.6719 64.7969
L19.6719 8.10938
L31.5938 8.10938
Q46.6875 8.10938 53.6875 14.9375
Q60.6875 21.7812 60.6875 36.5312
Q60.6875 51.1719 53.6875 57.9844
Q46.6875 64.7969 31.5938 64.7969
z

M9.8125 72.9062
L30.0781 72.9062
Q51.2656 72.9062 61.1719 64.0938
Q71.0938 55.2812 71.0938 36.5312
Q71.0938 17.6719 61.125 8.82812
Q51.1719 0 30.0781 0
L9.8125 0
z
" id="BitstreamVeraSans-Roman-44"/>
    <path d="
M48.7812 52.5938
L48.7812 44.1875
Q44.9688 46.2969 41.1406 47.3438
Q37.3125 48.3906 33.4062 48.3906
Q24.6562 48.3906 19.8125 42.8438
Q14.9844 37.3125 14.9844 27.2969
Q14.9844 17.2812 19.8125 11.7344
Q24.6562 6.20312 33.4062 6.20312
Q37.3125 6.20312 41.1406 7.25
Q44.9688 8.29688 48.7812 10.4062
L48.7812 2.09375
Q45.0156 0.34375 40.9844 -0.53125
Q36.9688 -1.42188 32.4219 -1.42188
Q20.0625 -1.42188 12.7812 6.34375
Q5.51562 14.1094 5.51562 27.2969
Q5.51562 40.6719 12.8594 48.3281
Q20.2188 56 33.0156 56
Q37.1562 56 41.1094 55.1406
Q45.0625 54.2969 48.7812 52.5938" id="BitstreamVeraSans-Roman-63"/>
    <path d="
M54.8906 54.6875
L35.1094 28.0781
L55.9062 0
L45.3125 0
L29.3906 21.4844
L13.4844 0
L2.875 0
L24.125 28.6094
L4.6875 54.6875
L15.2812 54.6875
L29.7812 35.2031
L44.2812 54.6875
z
" id="BitstreamVeraSans-Roman-78"/>
    <path d="
M32.1719 -5.07812
Q28.375 -14.8438 24.75 -17.8125
Q21.1406 -20.7969 15.0938 -20.7969
L7.90625 -20.7969
L7.90625 -13.2812
L13.1875 -13.2812
Q16.8906 -13.2812 18.9375 -11.5156
Q21 -9.76562 23.4844 -3.21875
L25.0938 0.875
L2.98438 54.6875
L12.5 54.6875
L29.5938 11.9219
L46.6875 54.6875
L56.2031 54.6875
z
" id="BitstreamVeraSans-Roman-79"/>
    <path d="
M56.2031 29.5938
L56.2031 25.2031
L14.8906 25.2031
Q15.4844 15.9219 20.4844 11.0625
Q25.4844 6.20312 34.4219 6.20312
Q39.5938 6.20312 44.4531 7.46875
Q49.3125 8.73438 54.1094 11.2812
L54.1094 2.78125
Q49.2656 0.734375 44.1875 -0.34375
Q39.1094 -1.42188 33.8906 -1.42188
Q20.7969 -1.42188 13.1562 6.1875
Q5.51562 13.8125 5.51562 26.8125
Q5.51562 40.2344 12.7656 48.1094
Q20.0156 56 32.3281 56
Q43.3594 56 49.7812 48.8906
Q56.2031 41.7969 56.2031 29.5938
M47.2188 32.2344
Q47.125 39.5938 43.0938 43.9844
Q39.0625 48.3906 32.4219 48.3906
Q24.9062 48.3906 20.3906 44.1406
Q15.875 39.8906 15.1875 32.1719
z
" id="BitstreamVeraSans-Roman-65"/>
    <path d="
M45.4062 46.3906
L45.4062 75.9844
L54.3906 75.9844
L54.3906 0
L45.4062 0
L45.4062 8.20312
Q42.5781 3.32812 38.25 0.953125
Q33.9375 -1.42188 27.875 -1.42188
Q17.9688 -1.42188 11.7344 6.48438
Q5.51562 14.4062 5.51562 27.2969
Q5.51562 40.1875 11.7344 48.0938
Q17.9688 56 27.875 56
Q33.9375 56 38.25 53.625
Q42.5781 51.2656 45.4062 46.3906
M14.7969 27.2969
Q14.7969 17.3906 18.875 11.75
Q22.9531 6.10938 30.0781 6.10938
Q37.2031 6.10938 41.2969 11.75
Q45.4062 17.3906 45.4062 27.2969
Q45.4062 37.2031 41.2969 42.8438
Q37.2031 48.4844 30.0781 48.4844
Q22.9531 48.4844 18.875 42.8438
Q14.7969 37.2031 14.7969 27.2969" id="BitstreamVeraSans-Roman-64"/>
    <path d="
M37.1094 75.9844
L37.1094 68.5
L28.5156 68.5
Q23.6875 68.5 21.7969 66.5469
Q19.9219 64.5938 19.9219 59.5156
L19.9219 54.6875
L34.7188 54.6875
L34.7188 47.7031
L19.9219 47.7031
L19.9219 0
L10.8906 0
L10.8906 47.7031
L2.29688 47.7031
L2.29688 54.6875
L10.8906 54.6875
L10.8906 58.5
Q10.8906 67.625 15.1406 71.7969
Q19.3906 75.9844 28.6094 75.9844
z
" id="BitstreamVeraSans-Roman-66"/>
    <path d="
M41.1094 46.2969
Q39.5938 47.1719 37.8125 47.5781
Q36.0312 48 33.8906 48
Q26.2656 48 22.1875 43.0469
Q18.1094 38.0938 18.1094 28.8125
L18.1094 0
L9.07812 0
L9.07812 54.6875
L18.1094 54.6875
L18.1094 46.1875
Q20.9531 51.1719 25.4844 53.5781
Q30.0312 56 36.5312 56
Q37.4531 56 38.5781 55.875
Q39.7031 55.7656 41.0625 55.5156
z
" id="BitstreamVeraSans-Roman-72"/>
    <path d="
M53.5156 70.5156
L53.5156 60.8906
Q47.9062 63.5781 42.9219 64.8906
Q37.9375 66.2188 33.2969 66.2188
Q25.25 66.2188 20.875 63.0938
Q16.5 59.9688 16.5 54.2031
Q16.5 49.3594 19.4062 46.8906
Q22.3125 44.4375 30.4219 42.9219
L36.375 41.7031
Q47.4062 39.5938 52.6562 34.2969
Q57.9062 29 57.9062 20.125
Q57.9062 9.51562 50.7969 4.04688
Q43.7031 -1.42188 29.9844 -1.42188
Q24.8125 -1.42188 18.9688 -0.25
Q13.1406 0.921875 6.89062 3.21875
L6.89062 13.375
Q12.8906 10.0156 18.6562 8.29688
Q24.4219 6.59375 29.9844 6.59375
Q38.4219 6.59375 43.0156 9.90625
Q47.6094 13.2344 47.6094 19.3906
Q47.6094 24.75 44.3125 27.7812
Q41.0156 30.8125 33.5 32.3281
L27.4844 33.5
Q16.4531 35.6875 11.5156 40.375
Q6.59375 45.0625 6.59375 53.4219
Q6.59375 63.0938 13.4062 68.6562
Q20.2188 74.2188 32.1719 74.2188
Q37.3125 74.2188 42.625 73.2812
Q47.9531 72.3594 53.5156 70.5156" id="BitstreamVeraSans-Roman-53"/>
    <path d="
M54.8906 33.0156
L54.8906 0
L45.9062 0
L45.9062 32.7188
Q45.9062 40.4844 42.875 44.3281
Q39.8438 48.1875 33.7969 48.1875
Q26.5156 48.1875 22.3125 43.5469
Q18.1094 38.9219 18.1094 30.9062
L18.1094 0
L9.07812 0
L9.07812 75.9844
L18.1094 75.9844
L18.1094 46.1875
Q21.3438 51.125 25.7031 53.5625
Q30.0781 56 35.7969 56
Q45.2188 56 50.0469 50.1719
Q54.8906 44.3438 54.8906 33.0156" id="BitstreamVeraSans-Roman-68"/>
   </defs>
   <g transform="translate(59.500125 19.58175)scale(0.144 -0.144)">
    <use xlink:href="#BitstreamVeraSans-Roman-53"/>
    <use x="63.4765625" xlink:href="#BitstreamVeraSans-Roman-61"/>
    <use x="124.755859375" xlink:href="#BitstreamVeraSans-Roman-6e"/>
    <use x="188.134765625" xlink:href="#BitstreamVeraSans-Roman-6b"/>
    <use x="242.419921875" xlink:href="#BitstreamVeraSans-Roman-65"/>
    <use x="303.943359375" xlink:href="#BitstreamVeraSans-Roman-79"/>
    <use x="363.123046875" xlink:href="#BitstreamVeraSans-Roman-20"/>
    <use x="394.91015625" xlink:href="#BitstreamVeraSans-Roman-44"/>
    <use x="471.912109375" xlink:href="#BitstreamVeraSans-Roman-69"/>
    <use x="499.6953125" xlink:href="#BitstreamVeraSans-Roman-61"/>
    <use x="560.974609375" xlink:href="#BitstreamVeraSans-Roman-67"/>
    <use x="624.451171875" xlink:href="#BitstreamVeraSans-Roman-72"/>
    <use x="665.564453125" xlink:href="#BitstreamVeraSans-Roman-61"/>
    <use x="726.84375" xlink:href="#BitstreamVeraSans-Roman-6d"/>
    <use x="824.255859375" xlink:href="#BitstreamVeraSans-Roman-73"/>
    <use x="876.35546875" xlink:href="#BitstreamVeraSans-Roman-20"/>
    <use x="908.142578125" xlink:href="#BitstreamVeraSans-Roman-6f"/>
    <use x="969.32421875" xlink:href="#BitstreamVeraSans-Roman-66"/>
    <use x="1004.52929688" xlink:href="#BitstreamVeraSans-Roman-20"/>
    <use x="1036.31640625" xlink:href="#BitstreamVeraSans-Roman-4d"/>
    <use x="1122.59570312" xlink:href="#BitstreamVeraSans-Roman-6f"/>
    <use x="1183.77734375" xlink:href="#BitstreamVeraSans-Roman-64"/>
    <use x="1247.25390625" xlink:href="#BitstreamVeraSans-Roman-65"/>
    <use x="1308.77734375" xlink:href="#BitstreamVeraSans-Roman-6c"/>
    <use x="1336.56054688" xlink:href="#BitstreamVeraSans-Roman-69"/>
    <use x="1364.34375" xlink:href="#BitstreamVeraSans-Roman-63"/>
    <use x="1419.32421875" xlink:href="#BitstreamVeraSans-Roman-61"/>
    <use x="1480.60351562" xlink:href="#BitstreamVeraSans-Roman-2e"/>
    <use x="1512.390625" xlink:href="#BitstreamVeraSans-Roman-46"/>
    <use x="1569.91015625" xlink:href="#BitstreamVeraSans-Roman-6c"/>
    <use x="1597.69335938" xlink:href="#BitstreamVeraSans-Roman-75"/>
    <use x="1661.07226562" xlink:href="#BitstreamVeraSans-Roman-69"/>
    <use x="1688.85546875" xlink:href="#BitstreamVeraSans-Roman-64"/>
    <use x="1752.33203125" xlink:href="#BitstreamVeraSans-Roman-2e"/>
    <use x="1784.11914062" xlink:href="#BitstreamVeraSans-Roman-45"/>
    <use x="1847.30273438" xlink:href="#BitstreamVeraSans-Roman-78"/>
    <use x="1906.48242188" xlink:href="#BitstreamVeraSans-Roman-61"/>
    <use x="1967.76171875" xlink:href="#BitstreamVeraSans-Roman-6d"/>
    <use x="2065.17382812" xlink:href="#BitstreamVeraSans-Roman-70"/>
    <use x="2128.65039062" xlink:href="#BitstreamVeraSans-Roman-6c"/>
    <use x="2156.43359375" xlink:href="#BitstreamVeraSans-Roman-65"/>
    <use x="2217.95703125" xlink:href="#BitstreamVeraSans-Roman-73"/>
    <use x="2270.05664062" xlink:href="#BitstreamVeraSans-Roman-2e"/>
    <use x="2301.84375" xlink:href="#BitstreamVeraSans-Roman-54"/>
    <use x="2346.42773438" xlink:href="#BitstreamVeraSans-Roman-61"/>
    <use x="2407.70703125" xlink:href="#BitstreamVeraSans-Roman-6e"/>
    <use x="2471.0859375" xlink:href="#BitstreamVeraSans-Roman-6b"/>
    <use x="2528.99609375" xlink:href="#BitstreamVeraSans-Roman-73"/>
    <use x="2581.09570312" xlink:href="#BitstreamVeraSans-Roman-2e"/>
    <use x="2612.8828125" xlink:href="#BitstreamVeraSans-Roman-54"/>
    <use x="2673.96679688" xlink:href="#BitstreamVeraSans-Roman-68"/>
    <use x="2737.34570312" xlink:href="#BitstreamVeraSans-Roman-72"/>
    <use x="2776.20898438" xlink:href="#BitstreamVeraSans-Roman-65"/>
    <use x="2837.73242188" xlink:href="#BitstreamVeraSans-Roman-65"/>
    <use x="2899.25585938" xlink:href="#BitstreamVeraSans-Roman-54"/>
    <use x="2943.83984375" xlink:href="#BitstreamVeraSans-Roman-61"/>
    <use x="3005.11914062" xlink:href="#BitstreamVeraSans-Roman-6e"/>
    <use x="3068.49804688" xlink:href="#BitstreamVeraSans-Roman-6b"/>
    <use x="3126.40820312" xlink:href="#BitstreamVeraSans-Roman-73"/>
   </g>
  </g>
 </g>
 <defs>
  <clipPath id="p658caa8d24">
   <rect height="163.2" width="246.857142857" x="300.342857143" y="247.2"/>
  </clipPath>
  <clipPath id="p75e9c09b84">
   <rect height="163.2" width="246.857142857" x="300.342857143" y="43.2"/>
  </clipPath>
  <clipPath id="p3b5883a4a3">
   <rect height="163.2" width="246.857142857" x="28.8" y="247.2"/>
  </clipPath>
  <clipPath id="pa44e201d42">
   <rect height="163.2" width="246.857142857" x="28.8" y="43.2"/>
  </clipPath>
 </defs>
</svg>
